<svg xmlns:rdf="http://www.w3.org/1999/02/22-rdf-syntax-ns#" xmlns="http://www.w3.org/2000/svg" xmlns:cc="http://creativecommons.org/ns#" xmlns:dc="http://purl.org/dc/elements/1.1/" height="300" width="240" version="1.1">
 <defs>
  <style type="text/css"/>
  <style type="text/css"/>
 </defs>
 <path d="m10.544 6.5c-8.7573 116.19-23.257 222.7 109.47 287 132.73-64.3 118.2-170.81 109.44-287h-218.91z" fill="#c83232"/>
 <g stroke="#000000">
  <path d="m102.55 17.5c2.7248 13.634 5.2812 27.817 5.2812 41.719v1.7812h-3.3438c-13.967 0-28.176-2.5382-41.875-5.25 4.0546 13.303 4.0546 21.415 0 34.719 13.699-2.7126 27.908-5.25 41.875-5.25h3.3438v28.031h-15.375c-13.967 0-28.208-2.5376-41.906-5.25 4.0546 13.304 4.0546 21.447 0 34.75 13.699-2.7118 27.939-5.2812 41.906-5.2812h15.375v99.469h24.344v-99.469h15.375c13.966 0 28.208 2.5694 41.906 5.2812-4.0546-13.303-4.0546-21.446 0-34.75-13.699 2.7124-27.94 5.25-41.906 5.25h-15.375v-28.031h3.3125c13.967 0 28.208 2.5374 41.906 5.25-4.06-13.304-4.06-21.416-0.01-34.719-13.7 2.712-27.94 5.25-41.91 5.25h-3.3125v-1.7812c0-13.902 2.5565-28.084 5.2812-41.719-13.365 4.0352-21.541 4.0352-34.906 0z" fill="#f5f5f5"/>
  <path d="m119.98 177.06c-16.249 0-30.007 10.687-34.594 25.375-5.1901-5.3288-12.492-8.625-20.531-8.625-15.731 0-28.469 12.686-28.469 28.344 0 1.1938 0.19914 2.3139 0.34375 3.4688 3.4225 5.0549 7.2475 9.9681 11.406 14.781 0.0052 0.006-0.0052 0.0252 0 0.0312 1.052 1.2172 2.1188 2.4221 3.2188 3.625 0.47242 0.52171 0.95602 1.0436 1.4375 1.5625 0.37549 0.40096 0.77533 0.78808 1.1562 1.1875 0.69136 0.73123 1.3839 1.4619 2.0938 2.1875 16.052 16.407 36.857 31.365 63.969 44.5 30.217-14.64 52.585-31.535 69.281-50.188 1.2359-1.3807 2.4195-2.7877 3.5938-4.1875 0.84618-0.99773 1.6855-1.9924 2.5-3 1.1545-1.4283 2.2839-2.8635 3.375-4.3125 1.5542-2.0639 3.074-4.1418 4.5-6.25 0.13954-1.137 0.34375-2.232 0.34375-3.4062 0-15.658-12.801-28.344-28.531-28.344-8.0448 0-15.324 3.2902-20.5 8.625-4.5863-14.688-18.345-25.375-34.594-25.375z" fill="#10679a"/>
  <path d="m10.544 6.5c-8.7573 116.19-23.257 222.7 109.47 287 132.73-64.3 118.2-170.81 109.44-287h-218.91z" stroke-width="3" fill="none"/>
 </g>
</svg>