<svg width="69" height="69" viewBox="0 0 69 69" fill="none" xmlns="http://www.w3.org/2000/svg">
<path d="M23.8619 30.0622V30.5663C23.8619 31.4405 24.4961 32.1683 25.3296 32.3106C25.3418 32.3146 25.354 32.3187 25.3662 32.3187C25.0979 32.2577 24.8986 32.0178 24.8986 31.7292C24.8986 31.3958 25.1711 31.1234 25.5085 31.1234H25.6345C25.3296 31.1234 25.0816 30.8713 25.0816 30.5663V30.0622C24.8824 30.0703 24.6832 30.0785 24.4839 30.0785C24.2766 30.0785 24.0692 30.0703 23.8619 30.0622Z" fill="#FEFEFE"/>
<path d="M24.8989 31.7291C24.8989 32.0178 25.0981 32.2576 25.3664 32.3186C25.3773 32.3213 25.3881 32.324 25.399 32.3268C25.4342 32.3349 25.4708 32.339 25.5087 32.339H25.6348H44.7967C45.1016 32.339 45.3496 32.587 45.3496 32.8919V35.4249C45.5529 35.4167 45.7562 35.4086 45.9595 35.4086C46.1628 35.4086 46.3661 35.4167 46.5694 35.4249V32.8919C46.5694 31.9161 45.7725 31.1233 44.7967 31.1233H25.6348H25.5087C25.1713 31.1233 24.8989 31.3957 24.8989 31.7291Z" fill="#FEFEFE"/>
<path d="M58.5512 49.2199H57.925C57.7949 51.8789 56.7866 54.3956 55.0505 56.4163C55.2091 56.5667 55.3636 56.7212 55.514 56.8757C55.6238 56.9896 55.6848 57.14 55.6848 57.2986C55.6848 57.4531 55.6238 57.6076 55.514 57.7173C55.5222 57.7119 55.5303 57.7038 55.5384 57.693C57.8722 55.2291 59.161 52.005 59.161 48.61C59.161 48.9475 58.8886 49.2199 58.5512 49.2199Z" fill="#FEFEFE"/>
<path d="M36.4048 56.8759C36.5566 56.7187 36.7111 56.5656 36.8683 56.4165C35.1322 54.3958 34.1239 51.8832 33.9938 49.2201H33.3677C33.0302 49.2201 32.7578 48.9477 32.7578 48.6102C32.7578 48.2728 33.0302 48.0004 33.3677 48.0004H33.9938C34.128 45.2926 35.1647 42.7393 36.9537 40.7064C36.7992 40.56 36.6447 40.4096 36.4983 40.2551C36.2666 40.0193 36.2666 39.6452 36.4983 39.4094C34.0873 41.8855 32.7578 45.1503 32.7578 48.6102C32.7578 52.0092 34.0467 55.2334 36.3845 57.6972C36.3899 57.7053 36.3967 57.7121 36.4048 57.7175C36.2991 57.6078 36.2381 57.4573 36.2381 57.2988C36.2381 57.1443 36.2991 56.9898 36.4048 56.8759Z" fill="#FEFEFE"/>
<path d="M55.4245 40.2551C55.274 40.4096 55.1195 40.56 54.965 40.7064C56.754 42.7393 57.7907 45.2926 57.929 48.0004H58.551C58.8885 48.0004 59.1609 48.2728 59.1609 48.6102C59.1609 45.1543 57.8314 41.8855 55.4245 39.4094C55.6521 39.6452 55.6521 40.0193 55.4245 40.2551Z" fill="#FEFEFE"/>
<path d="M37.7057 57.2987C37.7113 57.3044 37.7183 57.3116 37.7267 57.3202C37.7211 57.3116 37.7141 57.3044 37.7057 57.2987Z" fill="#FEFEFE"/>
<path d="M39.3727 38.6004C39.4662 38.5353 39.5556 38.4743 39.6532 38.4174C39.5556 38.4743 39.4621 38.5353 39.3727 38.6004Z" fill="#FEFEFE"/>
<path d="M45.9267 61.8076C45.9383 61.8103 45.9498 61.8117 45.9614 61.8117C45.9498 61.809 45.9383 61.8076 45.9267 61.8076Z" fill="#FEFEFE"/>
<path d="M38.1204 48.0003C38.1855 45.9674 38.588 44.0647 39.2426 42.418C39.0352 42.296 38.8279 42.1659 38.6286 42.0318C38.4904 41.9423 38.3522 41.8407 38.218 41.7431C37.4455 43.5849 36.9739 45.7194 36.9007 48.0003H38.1204Z" fill="#FEFEFE"/>
<path d="M53.3549 55.0543C53.4931 55.1438 53.6233 55.2414 53.7574 55.3389C54.4933 53.5297 54.9446 51.448 55.0178 49.22H53.7981C53.733 51.1959 53.3549 53.0459 52.7328 54.6559C52.9443 54.786 53.1516 54.9161 53.3549 55.0543Z" fill="#FEFEFE"/>
<path d="M36.9007 49.22C36.9739 51.448 37.4252 53.5297 38.1611 55.3389C38.2953 55.2414 38.4294 55.1438 38.5636 55.0543C38.7669 54.9161 38.9742 54.7819 39.1857 54.6559C38.5677 53.0459 38.1855 51.1959 38.1204 49.22H36.9007Z" fill="#FEFEFE"/>
<path d="M39.6737 55.7823C39.53 55.8718 39.3877 55.964 39.2468 56.0588C39.0516 56.1889 38.8646 56.3272 38.6816 56.4695C39.259 57.6038 39.9624 58.5959 40.7552 59.409C42.1782 60.0961 43.7313 60.4986 45.3495 60.5759V60.5556C43.032 60.2831 40.9951 58.4698 39.6737 55.7823Z" fill="#FEFEFE"/>
<path d="M52.176 41.2999C52.3224 41.2105 52.4688 41.1183 52.6151 41.0235C52.8062 40.8933 52.9892 40.7592 53.1721 40.6209C52.607 39.5435 51.928 38.5921 51.1636 37.8115C49.7406 37.1244 48.1875 36.7219 46.5693 36.6406V36.665C48.8462 36.9333 50.8546 38.6897 52.176 41.2999Z" fill="#FEFEFE"/>
<path d="M46.5693 60.5556V60.5759C48.1875 60.4986 49.7406 60.0961 51.1636 59.409C51.9565 58.5959 52.6598 57.6038 53.2412 56.4695C53.0542 56.3272 52.8672 56.193 52.6761 56.0629C52.5324 55.9653 52.3888 55.8718 52.2451 55.7823C50.9238 58.4698 48.8868 60.2791 46.5693 60.5556Z" fill="#FEFEFE"/>
<path d="M45.3495 36.665V36.6406C43.7354 36.7219 42.1782 37.1244 40.7552 37.8115C39.9908 38.5921 39.3118 39.5435 38.7467 40.6209C38.9297 40.7592 39.1167 40.8933 39.3037 41.0235C39.4501 41.117 39.5964 41.2105 39.7428 41.2999C41.0642 38.6897 43.0727 36.9333 45.3495 36.665Z" fill="#FEFEFE"/>
<path d="M55.018 48.0003C54.9448 45.7194 54.4732 43.5849 53.7007 41.7431C53.5665 41.8407 53.4283 41.9423 53.29 42.0318C53.0908 42.1659 52.8834 42.296 52.6761 42.418C53.3307 44.0606 53.7332 45.9674 53.7982 48.0003H55.018Z" fill="#FEFEFE"/>
<path d="M36.4983 40.2551C36.6446 40.4096 36.7991 40.5601 36.9536 40.7064C37.3521 41.0764 37.7749 41.422 38.2181 41.7432C38.3523 41.8408 38.4905 41.9424 38.6287 42.0319C38.828 42.166 39.0353 42.2961 39.2427 42.4181C41.1007 43.5159 43.1864 44.142 45.3494 44.2396V43.0199C43.3613 42.9223 41.4422 42.3327 39.7428 41.3C39.5964 41.2106 39.45 41.1171 39.3036 41.0236C39.1166 40.8935 38.9296 40.7593 38.7466 40.6211C38.4214 40.373 38.1043 40.1128 37.8034 39.8323C37.8115 39.8242 37.8183 39.8174 37.8237 39.812C37.9619 39.6846 38.1015 39.5612 38.2425 39.442C38.2913 39.4013 38.3441 39.3607 38.3929 39.32C38.4946 39.2387 38.5962 39.1533 38.6979 39.0761C38.7588 39.0273 38.8198 38.9866 38.8808 38.9419C38.9784 38.8687 39.0719 38.7996 39.1695 38.7345C39.2345 38.6858 39.3036 38.6451 39.3728 38.6004C39.4663 38.5353 39.5557 38.4743 39.6533 38.4174C39.7224 38.3727 39.7956 38.332 39.8688 38.2873C39.9623 38.2304 40.0558 38.1775 40.1493 38.1247C40.2252 38.084 40.2998 38.0434 40.3729 38.0027C40.4678 37.9539 40.564 37.9051 40.6616 37.8563C40.6914 37.8401 40.7226 37.8252 40.7551 37.8116C42.1781 37.1245 43.7353 36.722 45.3494 36.6407V36.0186C45.3494 35.6812 45.6259 35.4088 45.9593 35.4088C45.756 35.4088 45.5527 35.4169 45.3494 35.425C44.8859 35.4453 44.4224 35.4901 43.9671 35.5592C43.5727 35.6161 43.1824 35.6974 42.7961 35.7909C42.6958 35.8153 42.5969 35.8411 42.4993 35.8682C40.2388 36.478 38.1774 37.6815 36.4983 39.4095C36.2665 39.6453 36.2665 40.0193 36.4983 40.2551Z" fill="#FEFEFE"/>
<path d="M46.5693 36.0186V36.6407C48.1874 36.722 49.7406 37.1245 51.1636 37.8116C51.1961 37.8252 51.2286 37.8401 51.2612 37.8563C51.356 37.9024 51.4509 37.9512 51.5458 38.0027C51.6217 38.0434 51.6962 38.084 51.7694 38.1247C51.867 38.1775 51.9605 38.2304 52.054 38.2873C52.1231 38.328 52.1963 38.3727 52.2654 38.4174C52.363 38.4743 52.4565 38.5353 52.55 38.6004C52.6151 38.6451 52.6842 38.6858 52.7533 38.7345C52.8468 38.7996 52.9444 38.8687 53.0379 38.9419C53.0989 38.9866 53.1599 39.0273 53.2209 39.0761C53.3266 39.1533 53.4241 39.2387 53.5258 39.32C53.5786 39.3607 53.6274 39.4013 53.6762 39.442C53.8226 39.564 53.9649 39.69 54.1031 39.8201C54.1086 39.8228 54.1126 39.8269 54.1153 39.8323C54.1153 39.8323 54.1167 39.8323 54.1194 39.8323H54.1153C53.8145 40.1128 53.4973 40.3771 53.1721 40.6211C52.9891 40.7593 52.8061 40.8935 52.6151 41.0236C52.4687 41.1184 52.3223 41.2106 52.176 41.3C50.4765 42.3327 48.5574 42.9223 46.5693 43.0199V44.2396C48.7323 44.142 50.8221 43.5159 52.676 42.4181C52.8834 42.2961 53.0908 42.166 53.29 42.0319C53.4282 41.9424 53.5664 41.8408 53.7006 41.7432C54.1397 41.422 54.5626 41.0764 54.9651 40.7064C55.1196 40.5601 55.2741 40.4096 55.4245 40.2551C55.6522 40.0193 55.6522 39.6453 55.4245 39.4095C53.0582 36.9741 49.9317 35.5754 46.5693 35.425C46.366 35.4169 46.1627 35.4088 45.9594 35.4088C46.2969 35.4088 46.5693 35.6812 46.5693 36.0186Z" fill="#FEFEFE"/>
<path d="M55.5139 56.876C55.3635 56.7215 55.209 56.567 55.0504 56.4165C54.6398 56.0262 54.2088 55.6684 53.7575 55.3391C53.6234 55.2415 53.4933 55.1439 53.355 55.0545C53.1517 54.9163 52.9444 54.7862 52.733 54.656C50.8627 53.538 48.7567 52.8996 46.5693 52.8021V54.0218C48.5859 54.1194 50.5293 54.7252 52.2451 55.7823C52.3887 55.8717 52.5324 55.9652 52.676 56.0628C52.8671 56.1929 53.0542 56.3271 53.2412 56.4694C53.5746 56.7296 53.9039 57.002 54.2129 57.2988C54.2075 57.3042 54.2007 57.3096 54.1926 57.3151C54.1397 57.3679 54.0828 57.4167 54.0259 57.4696C53.9364 57.5509 53.847 57.6362 53.7535 57.7135C53.6884 57.7704 53.6234 57.8192 53.5624 57.8721C53.4729 57.9452 53.3835 58.0184 53.294 58.0876C53.229 58.1404 53.1558 58.1933 53.0867 58.2461C53.0013 58.3112 52.9119 58.3762 52.8224 58.4372C52.7492 58.4901 52.676 58.5388 52.6029 58.5876C52.5134 58.6446 52.424 58.7055 52.3345 58.7625C52.2586 58.8085 52.1827 58.8546 52.1068 58.9007C52.0174 58.9549 51.9266 59.0078 51.8344 59.0593C51.7558 59.1053 51.6772 59.1487 51.5986 59.1894C51.5065 59.2382 51.4143 59.2869 51.3221 59.3357C51.2679 59.3601 51.2151 59.3845 51.1636 59.4089C49.7406 60.096 48.1874 60.4985 46.5693 60.5758V61.2019C46.5693 61.5394 46.2969 61.8118 45.9594 61.8118C45.9703 61.8118 45.9811 61.8104 45.9919 61.8077C49.6227 61.7996 53.0054 60.3481 55.5139 57.7176C55.6237 57.6078 55.6847 57.4533 55.6847 57.2988C55.6847 57.1402 55.6237 56.9898 55.5139 56.876Z" fill="#FEFEFE"/>
<path d="M45.3495 61.2019V60.5758C43.7313 60.4985 42.1782 60.096 40.7552 59.4089C40.7037 59.3845 40.6522 59.3601 40.6007 59.3357C40.5058 59.2869 40.4123 59.2382 40.3201 59.1894C40.2415 59.1487 40.1643 59.1067 40.0884 59.0633C39.9935 59.0091 39.9 58.9549 39.8078 58.9007C39.7347 58.8546 39.6601 58.8085 39.5842 58.7625C39.4921 58.7055 39.4013 58.6459 39.3118 58.5836C39.2386 58.5348 39.1695 58.4901 39.1004 58.4372C39.0069 58.3762 38.9174 58.3071 38.828 58.242C38.7589 58.1892 38.6938 58.1404 38.6247 58.0876C38.5353 58.0184 38.4417 57.9452 38.3523 57.868C38.2913 57.8192 38.2303 57.7664 38.1693 57.7176C38.0718 57.6322 37.9782 57.5468 37.8888 57.4614C37.8319 57.4126 37.779 57.3679 37.7262 57.3191C37.718 57.311 37.7113 57.3042 37.7058 57.2988C38.0148 57.002 38.3442 56.7296 38.6816 56.4694C38.8646 56.3271 39.0516 56.1888 39.2468 56.0587C39.3877 55.9639 39.53 55.8717 39.6737 55.7823C41.3894 54.7252 43.3328 54.1194 45.3495 54.0218V52.8021C43.1662 52.8996 41.056 53.538 39.1858 54.656C38.9744 54.7821 38.767 54.9163 38.5637 55.0545C38.4295 55.1439 38.2954 55.2415 38.1612 55.3391C37.7099 55.6684 37.2789 56.0262 36.8683 56.4165C36.7111 56.5656 36.5566 56.7187 36.4048 56.876C36.2991 56.9898 36.2381 57.1443 36.2381 57.2988C36.2381 57.4574 36.2991 57.6078 36.4048 57.7176C38.9134 60.3481 42.292 61.7996 45.9268 61.8077C45.9376 61.8077 45.9485 61.8091 45.9593 61.8118C45.6259 61.8118 45.3495 61.5394 45.3495 61.2019Z" fill="#FEFEFE"/>
<path d="M58.5511 48.0005H57.9291H55.018H53.7983H46.5693V49.2202H53.7983H55.018H57.925H58.5511C58.8886 49.2202 59.161 48.9478 59.161 48.6104C59.161 48.2729 58.8886 48.0005 58.5511 48.0005Z" fill="#FEFEFE"/>
<path d="M38.1205 49.2202H45.3495V48.0005H38.1205H36.9008H33.9938H33.3677C33.0302 48.0005 32.7578 48.2729 32.7578 48.6104C32.7578 48.9478 33.0302 49.2202 33.3677 49.2202H33.9938H36.9008H38.1205Z" fill="#FEFEFE"/>
<path d="M45.3495 36.0186V36.6407V36.6651V43.0199V44.2396V48.0004V49.2201V52.8021V54.0218V60.5555V60.5758V61.2019C45.3495 61.5394 45.626 61.8118 45.9594 61.8118C46.2969 61.8118 46.5693 61.5394 46.5693 61.2019V60.5758V60.5555V54.0218V52.8021V49.2201V48.0004V44.2396V43.0199V36.6651V36.6407V36.0186C46.5693 35.6812 46.2969 35.4088 45.9594 35.4088C45.626 35.4088 45.3495 35.6812 45.3495 36.0186Z" fill="#FEFEFE"/>
<path d="M31.3998 20.6948L31.3876 25.1265C31.3835 26.0576 30.7127 26.9602 29.497 27.6676C28.1716 28.436 26.3908 28.8629 24.4839 28.8629C22.5771 28.8629 20.7881 28.436 19.4505 27.6635C18.2105 26.948 17.5315 26.0332 17.5315 25.0859L17.5437 20.6948L16.328 19.9915L16.3158 25.0818C16.3117 26.4845 17.2103 27.7774 18.8447 28.7206C20.2149 29.5094 21.9794 29.977 23.8619 30.0623C24.0692 30.0705 24.2766 30.0786 24.4839 30.0786C24.6831 30.0786 24.8824 30.0705 25.0816 30.0623C26.9762 29.981 28.7448 29.5135 30.1109 28.7166C31.7128 27.7855 32.5992 26.5129 32.6032 25.1306L32.6195 19.9915L31.3998 20.6948Z" fill="#FEFEFE"/>
<path d="M10.1442 16.4218L16.3282 19.9915L17.5438 20.6949L24.167 24.5167C24.2605 24.5736 24.3662 24.598 24.4719 24.598C24.5776 24.598 24.6833 24.5736 24.7768 24.5167L31.4 20.6949L32.6197 19.9915L34.1769 19.0889V18.3774L33.3312 18.1741L24.4719 23.2888L11.6648 15.8932L24.4719 8.50166L37.279 15.8932L34.8599 17.2918L34.929 17.3081C35.2014 17.3731 35.3925 17.6171 35.3925 17.8976V18.3896L38.7996 16.4218C38.9867 16.312 39.1046 16.1128 39.1046 15.8932C39.1046 15.6777 38.9867 15.4785 38.7996 15.3687L24.7768 7.2738C24.5898 7.16402 24.354 7.16402 24.167 7.2738L10.1442 15.3687C9.95714 15.4785 9.83923 15.6777 9.83923 15.8932C9.83923 16.1128 9.95714 16.312 10.1442 16.4218Z" fill="#FEFEFE"/>
<path d="M34.9289 17.3079L34.8598 17.2917L24.7604 14.8482C24.4352 14.7709 24.1059 14.9701 24.0286 15.2995C23.9473 15.6247 24.1506 15.954 24.4758 16.0313L33.3311 18.1739L34.1767 18.3772V19.0887V21.146C34.3109 21.0281 34.4085 20.9549 34.4207 20.9427C34.6362 20.7842 34.933 20.7842 35.1444 20.9427C35.1607 20.9549 35.2582 21.0281 35.3924 21.146V18.3894V17.8975C35.3924 17.6169 35.2013 17.373 34.9289 17.3079Z" fill="#FEFEFE"/>
<path fill-rule="evenodd" clip-rule="evenodd" d="M35.1445 20.9428C35.1608 20.955 35.2583 21.0282 35.3925 21.1461C35.8682 21.5648 36.8643 22.5975 36.8643 23.8661C36.8643 24.8052 35.9902 25.4842 34.7827 25.4842C33.5792 25.4842 32.701 24.8052 32.701 23.8661C32.701 22.5935 33.7012 21.5648 34.1769 21.1461C34.311 21.0282 34.4086 20.955 34.4208 20.9428C34.6363 20.7842 34.9331 20.7842 35.1445 20.9428ZM35.6487 23.8661C35.6487 23.2481 35.173 22.6301 34.7827 22.2398C34.3964 22.626 33.9207 23.2481 33.9207 23.8661C33.9207 24.1141 34.3679 24.2686 34.7827 24.2686C35.2014 24.2686 35.6487 24.1141 35.6487 23.8661Z" fill="#FEFEFE"/>

</svg>
