<svg width="70" height="70" viewBox="0 0 70 70" fill="none" xmlns="http://www.w3.org/2000/svg">
<path d="M61.3561 21.4446H51.2599C51.2491 21.5317 51.2355 21.62 51.2191 21.7098C51.2191 21.718 51.2191 21.722 51.2151 21.7302L51.2069 21.7791C51.196 21.8335 51.1838 21.8893 51.1702 21.9464L51.0193 22.6643H60.7483V53.4056H35.9383C35.2448 53.4056 34.6859 52.8427 34.6859 52.1533C34.6859 52.7733 34.4534 53.3403 34.074 53.7768C34.5268 54.2949 35.1958 54.6294 35.9383 54.6294H61.3561C61.6947 54.6294 61.968 54.3561 61.968 54.0175V22.0524C61.968 21.7179 61.6947 21.4446 61.3561 21.4446Z" fill="#FEFEFE"/>
<path d="M34.6859 23.9167C34.6859 23.2273 35.2448 22.6643 35.9383 22.6643H39.2302L39.1935 22.4767C39.0874 22.1422 39.0099 21.7955 38.961 21.4446H35.9383C35.1958 21.4446 34.5268 21.7751 34.074 22.2972C34.4534 22.7296 34.6859 23.2966 34.6859 23.9167Z" fill="#FEFEFE"/>
<path d="M56.8893 51.4435C57.2279 51.4435 57.5012 51.1702 57.5012 50.8316V25.1242C57.5012 24.7856 57.2279 24.5123 56.8893 24.5123H50.6317L50.3747 25.736H56.2774V31.8101C56.8036 32.1446 57.2197 32.5566 57.4318 33.0583C57.4645 33.1317 57.4808 33.2133 57.4808 33.2949V37.4068C57.4808 37.7454 57.2075 38.0187 56.8689 38.0187C56.5833 38.0187 56.3427 37.8188 56.2774 37.5496V50.2197H35.5752C35.0857 50.2197 34.6859 49.824 34.6859 49.3345C34.6859 49.3372 34.6859 49.3386 34.6859 49.3386V51.2436C34.9551 51.3701 35.257 51.4435 35.5752 51.4435H56.8893Z" fill="#FEFEFE"/>
<path d="M34.6859 26.609C34.6941 26.1277 35.0898 25.736 35.5752 25.736H39.8584L39.6096 24.5123H35.5752C35.257 24.5123 34.9551 24.5857 34.6859 24.7122V26.5764C34.6859 26.5872 34.6859 26.5968 34.6859 26.6049V26.609Z" fill="#FEFEFE"/>
<path d="M34.6859 52.1533V51.2436V49.3386C34.6737 50.1748 34.176 50.8928 33.4621 51.2232V52.1533C33.4621 52.8427 32.8992 53.4056 32.2098 53.4056H9.63521V22.6643H32.2098C32.8992 22.6643 33.4621 23.2273 33.4621 23.9167V24.6917C34.176 25.0262 34.6737 25.7442 34.6859 26.5763V24.7121V23.9167C34.6859 23.2966 34.4534 22.7296 34.074 22.2972C33.6212 21.7751 32.9522 21.4446 32.2098 21.4446H9.02333C8.68475 21.4446 8.41144 21.7179 8.41144 22.0524V54.0175C8.41144 54.3561 8.68475 54.6294 9.02333 54.6294H32.2098C32.9522 54.6294 33.6212 54.2949 34.074 53.7768C34.4534 53.3403 34.6859 52.7733 34.6859 52.1533Z" fill="#FEFEFE"/>
<path d="M34.6859 49.3142V37.5945C34.6043 37.8392 34.38 38.0187 34.1066 38.0187C33.7681 38.0187 33.4948 37.7454 33.4948 37.4068V33.2949C33.4948 33.2133 33.5152 33.1318 33.5437 33.0583C33.7599 32.5607 34.1678 32.1527 34.6859 31.8182V26.609V26.6049C34.6859 26.5968 34.6859 26.5873 34.6859 26.5764C34.6737 25.7442 34.176 25.0263 33.4621 24.6918C33.1929 24.5694 32.891 24.496 32.5769 24.496H30.3415C30.676 24.496 30.9493 24.7693 30.9493 25.1038C30.9493 25.4424 30.676 25.7157 30.3415 25.7157H32.5769C33.0664 25.7157 33.4662 26.1154 33.4662 26.6049V49.3142C33.4662 49.8037 33.0664 50.2034 32.5769 50.2034H30.3415C30.676 50.2034 30.9493 50.4767 30.9493 50.8112C30.9493 51.1498 30.676 51.4231 30.3415 51.4231H32.5769C32.891 51.4231 33.1929 51.3497 33.4621 51.2232C34.176 50.8928 34.6737 50.1749 34.6859 49.3386C34.6859 49.3386 34.6859 49.3373 34.6859 49.3346C34.6859 49.3264 34.6859 49.3196 34.6859 49.3142Z" fill="#FEFEFE"/>
<path d="M12.8823 25.7156V50.2034H14.102V25.7156H12.8823Z" fill="#FEFEFE"/>
<path d="M11.2587 24.496C10.9202 24.496 10.6469 24.7693 10.6469 25.1038V50.8112C10.6469 51.1498 10.9202 51.4231 11.2587 51.4231H13.4901H30.3415C30.676 51.4231 30.9493 51.1498 30.9493 50.8112C30.9493 50.4767 30.676 50.2034 30.3415 50.2034H14.102H12.8823H11.8665V25.7157H12.8823H14.102H30.3415C30.676 25.7157 30.9493 25.4424 30.9493 25.1038C30.9493 24.7693 30.676 24.496 30.3415 24.496H13.4901H11.2587Z" fill="#FEFEFE"/>
<path d="M16.7045 38.7448H22.134C22.4726 38.7448 22.7459 38.4715 22.7459 38.137C22.7459 37.7984 22.4726 37.5251 22.134 37.5251H16.7045C16.366 37.5251 16.0927 37.7984 16.0927 38.137C16.0927 38.4715 16.366 38.7448 16.7045 38.7448Z" fill="#FEFEFE"/>
<path d="M16.7045 41.6165H28.7261C29.0647 41.6165 29.338 41.3432 29.338 41.0047C29.338 40.6702 29.0647 40.3969 28.7261 40.3969H16.7045C16.366 40.3969 16.0927 40.6702 16.0927 41.0047C16.0927 41.3432 16.366 41.6165 16.7045 41.6165Z" fill="#FEFEFE"/>
<path d="M16.7045 44.4108H28.7261C29.0647 44.4108 29.338 44.1375 29.338 43.799C29.338 43.4604 29.0647 43.1871 28.7261 43.1871H16.7045C16.366 43.1871 16.0927 43.4604 16.0927 43.799C16.0927 44.1375 16.366 44.4108 16.7045 44.4108Z" fill="#FEFEFE"/>
<path d="M16.7045 47.0461H28.7261C29.0647 47.0461 29.338 46.7727 29.338 46.4382C29.338 46.0997 29.0647 45.8264 28.7261 45.8264H16.7045C16.366 45.8264 16.0927 46.0997 16.0927 46.4382C16.0927 46.7727 16.366 47.0461 16.7045 47.0461Z" fill="#FEFEFE"/>
<path d="M50.081 21.049C50.0647 21.2149 50.0416 21.3781 50.0117 21.5385L50.0239 21.4814C50.0892 21.151 50.4155 20.9389 50.7459 21.0082C51.0682 21.0775 51.2762 21.3876 51.2191 21.7098C51.2354 21.6201 51.249 21.5317 51.2599 21.4447C51.3007 21.1591 51.3211 20.8654 51.3211 20.5717C51.3211 20.3718 51.3129 20.176 51.2966 19.9802C51.2422 19.9041 51.1987 19.8225 51.1661 19.7355C50.9744 20.2168 50.6072 20.6615 50.081 21.049Z" fill="#FEFEFE"/>
<path d="M51.2069 21.7792L51.1702 21.9464C51.1838 21.8893 51.196 21.8336 51.2069 21.7792Z" fill="#FEFEFE"/>
<path d="M39.1935 22.4767L38.9406 21.2326C38.8712 20.9021 39.0874 20.5799 39.4179 20.5146C39.4559 20.5064 39.4954 20.5024 39.5362 20.5024C39.271 20.2087 39.0874 19.8946 38.9814 19.5601C38.9283 19.8905 38.9039 20.225 38.9039 20.5717C38.9039 20.8654 38.9243 21.1591 38.961 21.4447C39.0099 21.7955 39.0874 22.1422 39.1935 22.4767Z" fill="#FEFEFE"/>
<path d="M50.7459 21.0082C50.4155 20.9389 50.0892 21.151 50.0239 21.4814L50.0117 21.5385L49.9994 21.5793L49.0204 26.2419C47.5396 27.4861 45.6632 28.771 45.1125 28.771C44.623 28.771 42.8077 27.3841 41.1026 25.7157L40.1684 21.1387L40.148 21.049C39.9114 20.8777 39.7075 20.6941 39.5361 20.5024C39.4953 20.5024 39.4559 20.5065 39.4178 20.5146C39.0874 20.5799 38.8712 20.9021 38.9406 21.2326L39.1935 22.4767L39.2302 22.6644L39.6096 24.5123L39.8584 25.7361L39.9441 26.144C39.9685 26.2623 40.0257 26.3683 40.1113 26.454C40.4703 26.8089 41.1923 27.5065 42.0041 28.1877C42.2896 28.1673 42.5589 28.3509 42.6323 28.6364C42.6364 28.6527 42.6445 28.6772 42.6527 28.7098C43.5624 29.4115 44.5006 29.9907 45.1125 29.9907C46.4138 29.9907 49.1632 27.7308 49.9749 27.0373C50.0769 26.9517 50.1463 26.8293 50.1748 26.6988L50.3747 25.7361L50.6317 24.5123L51.0192 22.6644L51.1702 21.9464L51.2069 21.7792L51.215 21.7302C51.2191 21.7221 51.2191 21.718 51.2191 21.7098C51.2762 21.3876 51.0682 21.0776 50.7459 21.0082Z" fill="#FEFEFE"/>
<path d="M50.183 30.3089C49.7751 30.26 49.6568 30.0886 49.616 30.0315C49.4936 29.8561 49.465 29.6032 49.4732 29.3829C49.4773 29.1994 49.5017 29.0321 49.5221 28.9546C49.6078 28.6283 49.4161 28.2938 49.0938 28.2081C48.7675 28.1184 48.433 28.3142 48.3432 28.6364C48.3106 28.7629 48.0332 29.8847 48.6084 30.725C48.8287 31.0432 49.2611 31.4389 50.0728 31.5245C50.0864 31.5245 50.0987 31.5245 50.1096 31.5245C50.546 31.5449 51.0478 31.5898 51.5699 31.6551C53.4913 31.8998 55.7226 32.475 56.2611 33.4377V36.746V37.4068C56.2611 37.4558 56.2692 37.5047 56.2774 37.5496C56.3427 37.8188 56.5833 38.0187 56.8689 38.0187C57.2075 38.0187 57.4808 37.7454 57.4808 37.4068V33.2949C57.4808 33.2133 57.4645 33.1318 57.4318 33.0583C57.2197 32.5566 56.8036 32.1446 56.2774 31.8101C54.4336 30.6271 51.211 30.366 50.3339 30.3171C50.2727 30.313 50.2197 30.3089 50.183 30.3089Z" fill="#FEFEFE"/>
<path d="M41.4534 28.9545C41.4738 29.0239 41.5023 29.1871 41.5064 29.3788C41.5105 29.5991 41.486 29.852 41.3636 30.0315C41.3228 30.0886 41.2045 30.2599 40.7966 30.3089C40.7599 30.3089 40.7069 30.3129 40.6457 30.317C39.7646 30.366 36.5256 30.6311 34.6859 31.8182C34.1678 32.1527 33.7599 32.5606 33.5437 33.0583C33.5151 33.1317 33.4948 33.2133 33.4948 33.2949V37.4068C33.4948 37.7453 33.7681 38.0186 34.1066 38.0186C34.3799 38.0186 34.6043 37.8392 34.6859 37.5944C34.7063 37.5332 34.7185 37.472 34.7185 37.4068V36.7459V33.4376C35.257 32.4749 37.4843 31.8998 39.4097 31.655C39.9318 31.5897 40.4295 31.5449 40.87 31.5245C40.8809 31.5245 40.8918 31.5245 40.9027 31.5245C41.7144 31.4429 42.1468 31.0431 42.3671 30.7249C42.8893 29.9703 42.7179 28.9913 42.6527 28.7098C42.6445 28.6771 42.6364 28.6527 42.6323 28.6364C42.5589 28.3508 42.2896 28.1672 42.0041 28.1876C41.966 28.1904 41.9266 28.1972 41.8858 28.208C41.5594 28.2937 41.3677 28.6282 41.4534 28.9545Z" fill="#FEFEFE"/>
<path d="M39.5362 20.5023C39.7075 20.6941 39.9114 20.8776 40.148 21.049C40.1943 21.0816 40.2405 21.1142 40.2867 21.1469C40.4662 21.2652 40.658 21.3794 40.8701 21.4895C42.0163 22.0729 43.5257 22.3951 45.1207 22.3951C46.6585 22.3951 48.1148 22.0932 49.2407 21.5425C49.2815 21.5262 49.3223 21.5058 49.3631 21.4854C49.6282 21.3508 49.8648 21.204 50.081 21.049C50.6072 20.6614 50.9744 20.2168 51.1661 19.7354C51.1172 19.5967 51.0886 19.4499 51.0886 19.2949C51.0886 18.9277 51.1865 18.5892 51.3293 18.2914L51.3334 16.9901L50.1096 17.5938L50.1055 18.9277C50.1055 19.4417 49.6323 19.9761 48.8083 20.4004C47.8334 20.898 46.5239 21.1713 45.1207 21.1713C43.7174 21.1713 42.4039 20.898 41.4248 20.4004C40.5804 19.972 40.0991 19.4254 40.0991 18.9033L40.1032 17.5898L38.8835 16.986L38.8794 18.8992C38.8794 19.1276 38.9161 19.3479 38.9814 19.56C39.0874 19.8945 39.271 20.2086 39.5362 20.5023Z" fill="#FEFEFE"/>
<path d="M40.1032 17.5898L44.8433 19.9353C44.9249 19.9761 45.0187 19.9965 45.1125 19.9965C45.2063 19.9965 45.2961 19.9761 45.3817 19.9353L50.1096 17.5939L51.3334 16.9901L52.1859 16.57V15.2564L52.1125 15.2401L45.1125 18.7075L36.0402 14.2162L45.1125 9.72905L54.1807 14.2162L53.3812 14.6119C53.3975 14.665 53.4056 14.7221 53.4056 14.7792V15.9622L55.8287 14.7629C56.0367 14.6609 56.1714 14.4488 56.1714 14.2162C56.1714 13.9837 56.0367 13.7716 55.8287 13.6696L45.3817 8.5012C45.2145 8.41553 45.0105 8.41553 44.8433 8.5012L34.3963 13.6696C34.1883 13.7716 34.0536 13.9837 34.0536 14.2162C34.0536 14.4488 34.1883 14.6609 34.3963 14.7629L38.8835 16.986L40.1032 17.5898Z" fill="#FEFEFE"/>
<path d="M53.4056 14.7792C53.4056 14.7221 53.3975 14.665 53.3812 14.6119C53.32 14.408 53.1568 14.2407 52.9406 14.1877L45.3654 12.3276C45.0391 12.246 44.7087 12.4458 44.6271 12.7763C44.5496 13.1026 44.7495 13.433 45.0758 13.5146L52.1125 15.2401L52.186 15.2565V16.57V17.1696C52.3042 17.0595 52.3981 16.9861 52.4266 16.9616C52.6469 16.7984 52.9447 16.7984 53.1609 16.9616C53.1935 16.9861 53.2873 17.0595 53.4056 17.1696V15.9622V14.7792Z" fill="#FEFEFE"/>
<path fill-rule="evenodd" clip-rule="evenodd" d="M53.1609 16.9615C53.1935 16.986 53.2873 17.0595 53.4056 17.1696C53.7972 17.5286 54.503 18.3077 54.503 19.2949C54.503 20.0903 53.785 20.6655 52.7937 20.6655C52.1207 20.6655 51.5781 20.4004 51.2967 19.9802C51.2423 19.9041 51.1988 19.8225 51.1661 19.7354C51.1172 19.5967 51.0886 19.4499 51.0886 19.2949C51.0886 18.9278 51.1865 18.5892 51.3293 18.2914C51.57 17.7856 51.9371 17.394 52.1859 17.1696C52.3042 17.0595 52.3981 16.986 52.4266 16.9615C52.6469 16.7984 52.9447 16.7984 53.1609 16.9615ZM53.2833 19.303C53.2833 18.9318 53.0344 18.5565 52.7937 18.2873C52.5531 18.5565 52.3083 18.9278 52.3083 19.2949C52.3287 19.3438 52.5041 19.4458 52.7937 19.4458C53.0834 19.4458 53.2588 19.3438 53.2833 19.303Z" fill="#FEFEFE"/>
</svg>
