<svg version="1.2" xmlns="http://www.w3.org/2000/svg" viewBox="0 0 1719 1719" width="1719" height="1719">
	<path fill='#fefefe' d="m1055.2 972.9l120.5 120.4 5.5-5.5c5.4-5.5 12.1-9.3 19.7-11.6l-126.9-126.9q-9 12.1-18.8 23.6z"/>
	<path fill='#fefefe' d="m1115.5 1153.4l5.6-5.5-120.5-120.4q-11.5 9.8-23.5 18.8l127 127c2.2-7.6 6-14.4 11.4-19.9z"/>
	<path fill-rule="evenodd" fill='#fefefe' d="m366.4 1001.3c-88.6-88.5-137.3-206.2-137.3-331.4 0-125.1 48.7-242.8 137.2-331.3 88.6-88.5 206.2-137.3 331.4-137.3 125.2 0 242.8 48.8 331.4 137.3 88.5 88.5 137.2 206.2 137.2 331.3 0 102.1-32.4 199.1-92.3 279.4q-9 12.1-18.8 23.6c-8.3 9.7-17 19.2-26.1 28.4-9.2 9.2-18.7 17.9-28.5 26.2q-11.5 9.8-23.5 18.8c-80.3 59.9-177.4 92.3-279.4 92.3-125.2 0-242.8-48.8-331.3-137.3zm21.1-641.5c-82.8 82.8-128.5 193-128.5 310.1 0 117.2 45.7 227.4 128.5 310.2 82.9 82.9 193 128.5 310.2 128.5 117.2 0 227.3-45.6 310.2-128.5 82.9-82.8 128.5-193 128.5-310.2 0-117.1-45.6-227.3-128.5-310.1-82.9-82.9-193-128.5-310.2-128.5-117.2 0-227.3 45.6-310.2 128.5z"/>
	<path fill-rule="evenodd" fill='#fefefe' d="m1200.9 1076.2c5-1.4 10.4-2.2 16.1-2.2 23.6 0 50.5 12.8 72 34.3l172.9 172.9c16.3 16.3 27.7 35.7 32.2 54.7 5.1 21.3 0.8 40.7-11.7 53.1l-65.6 65.7c-9 9-21.4 13.8-35.9 13.8-23.6 0-50.4-12.9-71.9-34.3l-173-173c-16.2-16.2-27.6-35.6-32.1-54.7-2.9-12-2.7-23.3 0.2-33.2 2.2-7.6 6-14.4 11.4-19.9l5.6-5.5 54.6-54.6 5.5-5.5c5.4-5.5 12.1-9.3 19.7-11.6zm16.1 27.7c-6.4 0-11.3 1.7-14.7 5l-65.6 65.7c-5 5-6.3 14.1-3.7 25 3.2 13.5 12 28.3 24.2 40.5l173 172.9c15.7 15.7 35.1 25.5 50.7 25.5 6.5 0 11.4-1.7 14.7-5l65.7-65.6c4.9-5 6.3-14.1 3.7-25.1-3.2-13.5-12-28.2-24.2-40.4l-173-173c-15.7-15.7-35.2-25.5-50.8-25.5z"/>
	<path fill='#fefefe' d="m866 705.7l-0.3 107.5c-0.1 22.6-16.4 44.5-45.8 61.6-32.3 18.8-75.6 29.1-121.9 29.1-46.4 0-89.8-10.3-122.3-29.1-30.1-17.4-46.6-39.6-46.6-62.5l0.3-106.6-29.9-17.2-0.3 123.7c-0.1 34.1 21.8 65.6 61.6 88.5 36.9 21.4 85.7 33.1 137.2 33.1 51.5 0 100.2-11.7 136.9-33.1 39.1-22.7 60.6-53.7 60.7-87.4l0.4-124.9z"/>
	<path fill='#fefefe' d="m349.2 601.7l150.3 86.8 29.9 17.2 160.8 92.9c2.3 1.3 4.9 2 7.5 2 2.6 0 5.2-0.7 7.5-2l160.8-92.9 30-17.3 47.5-27.4v-11.6l-28.3-6.6-217.5 125.5-311.1-179.6 311.1-179.6 311.1 179.6-55.7 32.2 8.7 2c6.8 1.6 11.6 7.6 11.6 14.6v6.2l72.8-42c4.6-2.7 7.5-7.6 7.5-13 0-5.3-2.9-10.3-7.5-12.9l-341-196.9c-4.6-2.7-10.3-2.7-15 0l-341 196.9c-4.6 2.6-7.5 7.6-7.5 12.9 0 5.4 2.9 10.3 7.5 13z"/>
	<path fill='#fefefe' d="m961.8 622.9l-8.7-2-248.4-57.8c-8.1-1.9-16.1 3.1-18 11.2-1.9 8.1 3.1 16.1 11.2 18l217.3 50.5 28.3 6.6v11.6 55.2c3.4-3 5.9-4.7 6.3-5 5.1-3.7 12.1-3.7 17.3 0 0.4 0.3 2.8 2 6.3 5v-72.5-6.2c0-7-4.8-13-11.6-14.6z"/>
	<path fill-rule="evenodd" fill='#fefefe' d="m967.1 711.2c0.4 0.3 2.8 2 6.3 5 12.1 10.2 37.3 35.3 37.3 66.4 0 23.3-21.5 39.5-52.3 39.5-30.7 0-52.2-16.2-52.2-39.5 0-31.1 25.2-56.2 37.3-66.4 3.4-3 5.9-4.7 6.3-5 5.1-3.7 12.1-3.7 17.3 0zm13.6 71.4c0-15.1-12.4-30.4-22.3-39.7-9.9 9.3-22.3 24.6-22.3 39.7 0 5.1 10.5 9.6 22.3 9.6 11.9 0 22.3-4.5 22.3-9.6z"/>
</svg>