<svg width="48" height="47" viewBox="0 0 48 47" fill="none" xmlns="http://www.w3.org/2000/svg">
<path d="M15.9996 23.6267C15.9919 19.359 19.5673 15.8921 23.9841 15.8846C28.4017 15.8763 31.991 19.3289 31.9996 23.5975C32.0081 27.8659 28.4327 31.3321 24.0144 31.3404C19.5976 31.3486 16.0082 27.8952 15.9996 23.6267ZM11.677 23.635C11.6902 30.2105 17.2182 35.5291 24.023 35.5164C30.8285 35.5036 36.3371 30.1646 36.3238 23.5891C36.3106 17.0159 30.7819 11.6942 23.9755 11.707C17.1707 11.7198 11.6638 17.061 11.677 23.635ZM33.9056 11.2187C33.9086 12.7541 35.2009 13.9975 36.7904 13.9945C38.3805 13.9915 39.6675 12.7436 39.6652 11.2082C39.6621 9.67271 38.3697 8.42865 36.7796 8.43164C35.1894 8.43463 33.9025 9.68312 33.9056 11.2187ZM14.3403 42.5014C12.0005 42.4029 10.7299 42.0273 9.88311 41.7126C8.76176 41.2933 7.96161 40.7908 7.11945 39.9833C6.27888 39.1727 5.75707 38.4019 5.31926 37.3208C4.99038 36.5028 4.59457 35.2767 4.48488 33.0163C4.36591 30.5726 4.33872 29.8394 4.3271 23.6485C4.31463 17.4591 4.33797 16.726 4.44841 14.28C4.54863 12.021 4.93985 10.792 5.26488 9.97467C5.69876 8.88992 6.21748 8.11836 7.05495 7.30478C7.89392 6.49128 8.69173 5.98862 9.81148 5.56567C10.6576 5.24641 11.9266 4.86701 14.2656 4.7596C16.7967 4.64394 17.5549 4.61913 23.9616 4.60708C30.3697 4.59512 31.1286 4.61686 33.6606 4.72437C35.9987 4.82273 37.2709 5.19687 38.1162 5.51313C39.2383 5.93229 40.0384 6.43187 40.8798 7.24246C41.7211 8.05306 42.2429 8.82226 42.6808 9.90629C43.0111 10.7214 43.4039 11.9489 43.5144 14.2078C43.6349 16.6531 43.6621 17.3863 43.6738 23.5756C43.6861 29.7665 43.6628 30.4997 43.5517 32.9442C43.4498 35.2046 43.0618 36.4329 42.7352 37.2518C42.3013 38.3343 41.7826 39.1073 40.9443 39.9209C40.1061 40.7314 39.3083 41.237 38.1878 41.66C37.3432 41.9785 36.0727 42.3586 33.7352 42.466C31.2041 42.581 30.4459 42.6072 24.0369 42.6185C17.6302 42.6305 16.8722 42.6072 14.3403 42.5014ZM14.0603 0.587344C11.5067 0.703726 9.76255 1.09888 8.23836 1.67581C6.66063 2.27003 5.32319 3.06641 3.99279 4.35702C2.66069 5.64836 1.84263 6.94268 1.23222 8.46841C0.641312 9.9446 0.240811 11.6304 0.12803 14.0989C0.0160919 16.572 -0.00959563 17.3608 0.00287314 23.6568C0.0153419 29.9521 0.0440295 30.7424 0.166092 33.2161C0.288155 35.6824 0.695687 37.3667 1.29288 38.8398C1.90872 40.3641 2.73222 41.6554 4.06891 42.9415C5.40485 44.2277 6.74548 45.0172 8.32554 45.6077C9.85198 46.1778 11.5976 46.5662 14.1521 46.6744C16.712 46.7834 17.5292 46.8074 24.0447 46.7953C30.5634 46.7834 31.3807 46.7556 33.9405 46.6384C36.4942 46.5204 38.2367 46.1253 39.7624 45.5498C41.3401 44.9533 42.6776 44.1593 44.0082 42.868C45.3386 41.5773 46.1566 40.2822 46.767 38.7557C47.358 37.281 47.76 35.5945 47.8711 33.1283C47.9832 30.6537 48.0097 29.8634 47.9971 23.5681C47.9847 17.2721 47.9552 16.4833 47.8339 14.011C47.7126 11.5425 47.3036 9.85892 46.7071 8.385C46.0905 6.86081 45.2679 5.57019 43.9319 4.28339C42.596 2.99803 41.2554 2.20618 39.6753 1.61802C38.1481 1.04698 36.4032 0.657898 33.8487 0.551207C31.2888 0.441618 30.4716 0.417527 23.9537 0.429573C17.4374 0.441618 16.6202 0.468608 14.0603 0.587344Z" fill="#FEFEFE"/>
</svg>
