<svg width="50" height="50" viewBox="0 0 50 50" fill="none" xmlns="http://www.w3.org/2000/svg">
<rect width="50" height="50" fill="white"/>
<path fill-rule="evenodd" clip-rule="evenodd" d="M46 41.6H4.09999C1.99999 41.6 0.299988 39.9001 0.299988 37.9001V11.1C0.299988 10.2 0.699988 9.30005 1.39999 8.60005C2.09999 7.80005 3.09999 7.30005 4.09999 7.30005H46C47.1 7.30005 48.1 7.80005 48.8 8.60005C49.4 9.30005 49.8 10.2 49.8 11.1V37.9001C49.8 39.9001 48.1 41.6 46 41.6ZM4.09999 9.30005C3.59999 9.30005 3.19999 9.50005 2.79999 9.90005C2.49999 10.2 2.29999 10.7 2.29999 11.1V37.9001C2.29999 38.8001 3.09999 39.7001 4.09999 39.7001H46C47 39.7001 47.8 38.8001 47.8 37.9001V11.1C47.8 10.7 47.6 10.2 47.3 9.90005C47 9.50005 46.5 9.30005 46 9.30005H4.09999Z" fill="#212121"/>
<path fill-rule="evenodd" clip-rule="evenodd" d="M25.1 29.5C23.8 29.5 22.5 29.1 21.3 28.2L17.9 25.2C17.9 25.2 17.8667 25.1666 17.8 25.1L1.40003 9.79998C1.00003 9.39998 1.00003 8.79998 1.30003 8.39998C2.10003 7.59998 3.10003 7.09998 4.10003 7.09998H46C47.1 7.09998 48.1 7.59998 48.8 8.39998C49.2 8.79998 49.1 9.39998 48.7 9.79998L32.3 25.1C32.3 25.1666 32.2667 25.2 32.2 25.2L29.1 28C27.8 29 26.4 29.5 25.1 29.5ZM22.6 26.7C24.2 27.9 26.1 27.8 27.8 26.5L31 23.7C31 23.6333 31 23.6 31 23.6L46.4 9.19998C46.2667 9.13331 46.1334 9.09998 46 9.09998H4.10003C3.96669 9.09998 3.83336 9.13331 3.70003 9.19998L19.1 23.6C19.1667 23.6 19.2 23.6333 19.2 23.7L22.6 26.7Z" fill="#212121"/>
<path fill-rule="evenodd" clip-rule="evenodd" d="M46 41.7H4.10003C3.10003 41.7 2.10003 41.2 1.30003 40.4C1.00003 40 1.00003 39.4 1.40003 39L17.8 23.7C18.2 23.3 18.8 23.3 19.2 23.7L22.6 26.7C24.2 27.9 26.1 27.8 27.8 26.5L31 23.7C31.3 23.3 31.9 23.3 32.3 23.7L48.7 39C49.1 39.4 49.2 40 48.8 40.4C48.1 41.2 47.1 41.7 46 41.7ZM3.70003 39.6C3.83336 39.6667 3.96669 39.7 4.10003 39.7H46C46.1334 39.7 46.3 39.6667 46.5 39.6L31.6 25.7L29.1 28C27.8 29 26.4 29.5 25.1 29.5C23.8 29.5 22.5 29.1 21.3 28.2L18.5 25.7L3.70003 39.6Z" fill="#212121"/>
</svg>
