<svg width="53" height="45" viewBox="0 0 53 45" fill="none" xmlns="http://www.w3.org/2000/svg">
<path d="M12.7089 26.4349L18.4062 42.3541C18.4062 42.3541 19.12 43.8381 19.8875 43.8381C20.6524 43.8381 32.047 31.9846 32.047 31.9846L44.7164 7.51001L12.8887 22.4309L12.7089 26.4349Z" fill="black"/>
<path d="M20.5532 30.1892L19.1711 42.2521C19.1711 42.2521 18.7122 45.8293 22.2895 42.2521C25.864 38.6775 29.2883 35.9187 29.2883 35.9187L20.5532 30.1892Z" fill="black"/>
<path d="M13.0792 26.5555L1.31159 22.7207C1.31159 22.7207 -0.0946282 22.149 0.356219 20.8555C0.450146 20.5899 0.637999 20.3618 1.19887 19.97C3.80735 18.1531 49.4718 1.74015 49.4718 1.74015C49.4718 1.74015 50.7626 1.3054 51.5247 1.59523C51.8709 1.72673 52.0936 1.87433 52.2815 2.4191C52.3486 2.61769 52.3888 3.03902 52.3835 3.45766C52.3808 3.76091 52.3432 4.04001 52.3164 4.48012C52.0373 8.96713 43.7154 42.4587 43.7154 42.4587C43.7154 42.4587 43.2189 44.4177 41.4343 44.4848C40.7822 44.5089 39.9932 44.3774 39.0486 43.567C35.5492 40.5533 23.4487 32.4219 20.7732 30.632C20.6229 30.5327 20.5799 30.4012 20.5558 30.2724C20.5182 30.0845 20.7222 29.851 20.7222 29.851C20.7222 29.851 41.7939 11.1221 42.3548 9.15498C42.3977 9.0047 42.234 8.92956 42.014 8.99396C40.6131 9.50922 16.3533 24.83 13.675 26.5207C13.5194 26.62 13.0792 26.5555 13.0792 26.5555Z" fill="black"/>
<path d="M13.0122 25.8553L18.5861 41.7369C18.5861 41.7369 19.3026 43.2182 20.0701 43.2182C20.8349 43.2182 32.2296 31.3647 32.2296 31.3647L44.8989 6.89282L13.0686 21.811L13.0122 25.8553Z" fill="#FEFEFE"/>
<path d="M20.7356 29.5693L19.3535 41.6349C19.3535 41.6349 18.8946 45.2121 22.4692 41.6349C26.0464 38.0576 29.4707 35.2989 29.4707 35.2989L20.7356 29.5693Z" fill="#FEFEFE"/>
<path d="M13.2618 25.9384L1.49142 22.1035C1.49142 22.1035 0.0878846 21.5319 0.538732 20.2384C0.632659 19.97 0.820512 19.7446 1.38139 19.3528C3.98986 17.5333 49.6543 1.12028 49.6543 1.12028C49.6543 1.12028 50.9424 0.685531 51.7046 0.975362C52.0534 1.10686 52.2762 1.25714 52.464 1.80192C52.5311 2.0005 52.5714 2.42183 52.566 2.84047C52.5606 3.14372 52.5257 3.42282 52.4962 3.86293C52.2198 8.34994 43.8979 41.8415 43.8979 41.8415C43.8979 41.8415 43.3988 43.8005 41.6168 43.8676C40.9647 43.8917 40.1757 43.7603 39.2311 42.9471C35.7317 39.9361 23.6286 31.8047 20.9557 30.0148C20.8054 29.9155 20.7625 29.784 20.7356 29.6552C20.6981 29.4673 20.9047 29.2338 20.9047 29.2338C20.9047 29.2338 41.9738 10.5022 42.5346 8.53779C42.5776 8.38483 42.4166 8.30968 42.1938 8.37677C40.7957 8.89203 16.5358 24.2101 13.8575 25.9008C13.7019 26.0001 13.2618 25.9384 13.2618 25.9384Z" fill="#C7C7C7"/>
</svg>
