<svg width="50" height="50" viewBox="0 0 50 50" xmlns="http://www.w3.org/2000/svg">
<path d="M11.6 15.8001C15.1 25.4001 21.6 32.0001 31.2 35.4001C33.3 36.0001 34.8 34.3001 36.3 32.1001C37.4 30.1001 35.1 29.3001 33.9 28.2001C32.1 26.8001 30.4 25.6001 29 26.8001C28.2 27.6001 28 28.6001 26.6 28.6001C22.7333 27.6667 20 24.9334 18.4 20.4001C18.3 19.2001 19.2 18.8001 20.2 18.0001C21.5 16.5001 20 14.8001 18.9 13.1001C17.3 11.0001 16.6 10.0001 15 10.6001C12.4 12.2001 11 13.9001 11.6 15.8001Z"/>
<path fill-rule="evenodd" clip-rule="evenodd" d="M48.4 16.8V27.3C48.4 36.4 41 43.7001 31.9 43.7001H20.9L16.4 48.7001C14.9 50.6001 12.8 50.3001 12.5 47.9001V43C5.9 40.8 1 34.6 1 27.3V16.8C1 7.70005 8.4 0.300049 17.5 0.300049H31.9C41 0.300049 48.4 7.70005 48.4 16.8ZM44.8 17.6C44.8 9.80005 38.6 3.60005 30.8 3.60005H18.6C10.9 3.60005 4.7 9.80005 4.7 17.6V26.5C4.7 32.5 8.5 37.7 13.9 39.6V43.3L13.8 47.3C13.8 49.6 15.5 47.4001 15.7 47.2001C15.7 47.2001 17.5 45 19.1 43.3C20 42.2001 20.8 41.2001 21.5 40.4001H30.8C38.6 40.4001 44.8 34.2001 44.8 26.5V17.6Z"/>
<path d="M30.2 20.8C29.9 20.8 29.6 20.5 29.6 20.2C29.4 18 28.5 17.1 26.4 16.9C26.1 16.9 25.8 16.6 25.8 16.2C25.9 15.9 26.2 15.6 26.5 15.7C29.3 15.9 30.6 17.3 30.8 20.1C30.9 20.5 30.6 20.8 30.3 20.8C30.2333 20.8 30.2 20.8 30.2 20.8Z"/>
<path d="M33.5 21.9C33.1 21.9 32.8 21.6 32.8 21.3C32.8 16.8 30.1 13.9 25.4 13.5C25.1 13.5 24.8 13.2 24.9 12.9C24.9 12.5 25.2 12.3 25.5 12.3C30.9 12.8 34.1 16.1 34.1 21.3C34.1 21.6 33.8 21.9 33.5 21.9Z" />
<path d="M36.8 23.2C36.4 23.2 36.2 22.9 36.2 22.6C36.2 15.2 31.5 10.4 24.4 10.3C24 10.3 23.8 10 23.8 9.6C23.8 9.3 24.1 9 24.4 9C32.3 9.1 37.4 14.4 37.4 22.6C37.4 22.9 37.1 23.2 36.8 23.2Z" />
</svg>
