<svg width="50" height="50" viewBox="0 0 50 50" xmlns="http://www.w3.org/2000/svg">
<path fill-rule="evenodd" clip-rule="evenodd" d="M49.4 24.9C49.4 38.3 38.6 49.2 25.2 49.2C21 49.2 17.2 48.2 13.7 46.3L0.299988 49.6L3.79999 36.5C1.89999 33 0.899988 29.1 0.899988 24.9C0.899988 11.5 11.7 0.599976 25.2 0.599976C38.6 0.599976 49.4 11.5 49.4 24.9ZM45.4 24.9C45.4 13.7 36.3 4.59998 25.1 4.59998C13.9 4.59998 4.79999 13.7 4.79999 24.9C4.79999 28.4 5.69999 31.7 7.29999 34.6L4.39999 45.6L15.6 42.8C18.4 44.4 21.7 45.2 25.1 45.2C36.3 45.2 45.4 36.1 45.4 24.9Z"/>
<path d="M16.3 13.5C19.8 14.1 21 16.6 21 20.4L19.1 23.1C21.9 27.3 24.9 29.6 28.1 30.4L30.8 27.5C33.7 27.8 36.1 28.9 37.1 32C35 46.1 1.89998 25 16.3 13.5Z"/>
</svg>
