<svg width="44" height="57" viewBox="0 0 44 57" fill="none" xmlns="http://www.w3.org/2000/svg">
<path fill-rule="evenodd" clip-rule="evenodd" d="M40.3044 5.44798V51.7653C40.3044 52.2985 39.8702 52.725 39.3299 52.725H4.47724C3.93689 52.725 3.51233 52.2985 3.51233 51.7653V13.174C3.51233 13.0383 3.53163 12.9123 3.57987 12.7959C3.63133 12.6796 3.70209 12.5762 3.79215 12.4857L11.5404 4.7694C11.55 4.75971 11.5597 4.75002 11.579 4.74032C11.6562 4.67247 11.743 4.60461 11.8492 4.56583C11.965 4.51413 12.0904 4.48828 12.2255 4.48828H39.3299C39.8702 4.48828 40.3044 4.91481 40.3044 5.44798ZM38.365 6.41736H13.1904V13.174C13.1904 13.7072 12.7562 14.1337 12.2255 14.1337H5.44215V50.7959H38.365V6.41736ZM11.2509 12.2143V7.7842L6.81233 12.2143H11.2509Z" fill="black"/>
<path d="M12.2255 19.921C11.6852 19.921 11.251 20.3572 11.251 20.8903C11.251 21.4235 11.6852 21.85 12.2255 21.85H31.5817C32.122 21.85 32.5562 21.4235 32.5562 20.8903C32.5562 20.3572 32.122 19.921 31.5817 19.921H12.2255Z" fill="black"/>
<path d="M31.5817 25.7179H12.2255C11.6852 25.7179 11.251 26.1444 11.251 26.6776C11.251 27.2108 11.6852 27.647 12.2255 27.647H31.5817C32.122 27.647 32.5562 27.2108 32.5562 26.6776C32.5562 26.1444 32.122 25.7179 31.5817 25.7179Z" fill="black"/>
<path d="M31.5817 31.5051H12.2255C11.6852 31.5051 11.251 31.9317 11.251 32.4648C11.251 32.998 11.6852 33.4342 12.2255 33.4342H31.5817C32.122 33.4342 32.5562 32.998 32.5562 32.4648C32.5562 31.9317 32.122 31.5051 31.5817 31.5051Z" fill="black"/>
<path d="M19.9641 43.0796H12.2255C11.6852 43.0796 11.251 43.5158 11.251 44.049C11.251 44.5821 11.6852 45.0087 12.2255 45.0087H19.9641C20.5045 45.0087 20.9387 44.5821 20.9387 44.049C20.9387 43.5158 20.5045 43.0796 19.9641 43.0796Z" fill="black"/>
<path d="M31.5816 43.0796H23.843C23.3026 43.0796 22.8684 43.5158 22.8684 44.049C22.8684 44.5821 23.3026 45.0087 23.843 45.0087H31.5816C32.1219 45.0087 32.5561 44.5821 32.5561 44.049C32.5561 43.5158 32.1219 43.0796 31.5816 43.0796Z" fill="black"/>
<path d="M20.408 40.8112C19.9352 40.7142 18.3623 40.6367 17.6194 40.6852C17.3974 40.7046 17.2141 40.7336 17.0597 40.7724C16.9825 40.5107 16.8088 40.2877 16.5676 40.1617C16.5676 39.6673 16.5773 39.1729 16.5869 38.6785V38.4459C16.5966 37.9806 16.2588 37.5637 15.786 37.4862C15.4773 37.428 15.1588 37.5347 14.9466 37.7382C14.8501 37.3699 14.5509 37.079 14.165 37.0209C13.7501 36.9433 13.3448 37.1469 13.1518 37.5153C13.0167 37.7479 12.8623 38.029 12.6887 38.3392C11.7913 39.8806 11.1641 41.0535 11.1352 41.9648C11.1159 42.4979 11.5404 42.9438 12.0711 42.9632C12.084 42.9632 12.0936 42.9632 12.1001 42.9632C12.5632 42.9632 12.9588 42.6336 13.0457 42.1877C13.1293 42.2588 13.2226 42.317 13.3255 42.3622C13.6343 42.4882 14.0009 42.4495 14.2808 42.2362C14.4673 42.1005 14.641 41.9454 14.8018 41.7709C14.8983 41.9163 15.0238 42.0423 15.1781 42.1296C15.3036 42.1877 15.429 42.2265 15.5641 42.2362C15.6799 42.4204 15.8343 42.5755 16.0369 42.6821C16.5194 42.9535 16.9825 42.8081 17.2623 42.7209C17.4167 42.6724 17.5615 42.6239 17.7352 42.6142C18.4009 42.5755 19.7615 42.653 20.0123 42.7015C20.5334 42.8081 21.0448 42.4785 21.1606 41.9551C21.2667 41.4316 20.929 40.9178 20.408 40.8112Z" fill="black"/>
<path d="M28.4264 38.3393C27.9632 38.1648 27.4422 38.3684 27.2202 38.8046C27.0659 39.1245 26.8343 39.4153 26.6027 39.648C26.5738 39.2214 26.265 38.8628 25.8501 38.7658C25.4255 38.6689 24.9816 38.8725 24.779 39.2602C24.4123 39.9485 24.0553 40.724 23.6694 41.6255C23.4667 42.1102 23.6983 42.6822 24.1904 42.8857C24.3159 42.9342 24.4413 42.9633 24.5667 42.9633C24.9431 42.9633 25.3001 42.7403 25.4641 42.3719C25.5156 42.2427 25.567 42.1199 25.6185 42.0036C26.4483 42.1296 27.2395 41.7031 27.8571 41.1214C28.272 41.3541 28.7545 41.3929 29.179 41.4026C29.1726 41.5447 29.1694 41.6901 29.1694 41.8388C29.1404 42.3719 29.565 42.8179 30.0957 42.8373C30.5878 42.8857 31.0799 42.4495 31.0992 41.9163C31.1185 41.4026 31.1088 40.8985 31.0799 40.4041C31.0509 39.9582 30.7132 39.5898 30.2597 39.5123C29.9124 39.4638 29.5071 39.4929 29.0246 39.4638C29.1404 38.9888 28.8799 38.5041 28.4264 38.3393Z" fill="black"/>
</svg>
