<svg width="49" height="59" viewBox="0 0 49 59" fill="none" xmlns="http://www.w3.org/2000/svg">
<path fill-rule="evenodd" clip-rule="evenodd" d="M5.40095 24.9002C4.78028 25.5557 4.54073 26.3752 4.73672 27.1291C4.94361 27.8829 5.56428 28.462 6.43539 28.7352C6.63139 28.7898 6.77295 28.8991 6.82739 29.0411C6.88184 29.1831 6.87095 29.3689 6.77295 29.5437C6.33739 30.3413 6.3265 31.1935 6.71851 31.8709C7.1105 32.5483 7.85095 32.9526 8.76561 32.9854C8.9725 32.9854 9.13584 33.0618 9.22295 33.182C9.32095 33.3022 9.34272 33.477 9.29917 33.6846C9.11406 34.4822 9.25562 35.2252 9.70206 35.7715C10.1921 36.3942 11.0196 36.6565 11.9125 36.5144C11.8145 36.6128 11.7383 36.7439 11.6838 36.875L5.31384 53.7009C5.16139 54.127 5.27028 54.5968 5.60784 54.8918C5.94539 55.1978 6.4245 55.2633 6.82739 55.0557L11.3789 52.7941L13.6547 57.3283C13.8398 57.6998 14.2209 57.9292 14.6347 57.9292C14.6565 57.9292 14.6819 57.9256 14.7109 57.9183C15.1465 57.8965 15.5276 57.6015 15.6692 57.1863L21.3532 40.2074C21.5274 40.2074 21.7016 40.2948 21.8214 40.4915C22.3114 41.2563 23.0409 41.7042 23.8249 41.7042C24.6089 41.7042 25.3385 41.2563 25.8176 40.4915C25.9156 40.3276 26.0572 40.2402 26.1987 40.2074L31.8827 57.1863C32.0243 57.6015 32.4054 57.8965 32.8409 57.9183C32.8627 57.9256 32.8881 57.9292 32.9172 57.9292C33.3309 57.9292 33.7121 57.6998 33.8972 57.3283L36.1729 52.7941L40.7136 55.0667C41.1165 55.2633 41.6065 55.1978 41.9441 54.8918C42.2707 54.5968 42.3905 54.127 42.2272 53.7009L35.8681 36.8859C35.8136 36.7329 35.7265 36.6128 35.6176 36.5035C36.5649 36.6892 37.4252 36.4161 37.9478 35.7715C38.3834 35.2252 38.5249 34.4822 38.3398 33.6846C38.2963 33.4879 38.3181 33.3131 38.4161 33.182C38.5141 33.0618 38.6774 32.9963 38.8734 32.9854C39.7881 32.9526 40.5394 32.5483 40.9314 31.8709C41.3234 31.1935 41.3016 30.3522 40.8769 29.5437C40.7789 29.3689 40.7572 29.1831 40.8116 29.0411C40.8769 28.91 41.0185 28.7898 41.2145 28.7352C42.0856 28.4729 42.6954 27.8829 42.9023 27.1291C43.1092 26.3752 42.8696 25.5557 42.2381 24.9002C42.1074 24.7472 42.0421 24.5833 42.0638 24.4304C42.0747 24.2774 42.1836 24.1354 42.3578 24.0261C43.1309 23.5454 43.5774 22.8242 43.5774 22.0376C43.5774 21.2618 43.1309 20.5298 42.3578 20.0491C42.1836 19.9398 42.0856 19.7978 42.0638 19.6448C42.0421 19.4918 42.1074 19.3279 42.2489 19.1859C42.8696 18.5194 43.1092 17.7 42.9023 16.9461C42.7063 16.1922 42.0856 15.6131 41.2145 15.34C41.0185 15.2854 40.8769 15.1761 40.8225 15.0341C40.7572 14.892 40.7789 14.7172 40.8769 14.5315C41.3016 13.7339 41.3234 12.8816 40.9314 12.2042C40.5394 11.5268 39.7881 11.1226 38.8734 11.0898C38.6774 11.0898 38.5141 11.0133 38.4161 10.8931C38.3181 10.7729 38.2963 10.5981 38.3398 10.3905C38.5249 9.60387 38.3834 8.86091 37.9478 8.30369C37.4143 7.63721 36.4996 7.36406 35.5196 7.58258C35.1167 7.68091 34.8336 7.46239 34.8227 7.04721C34.7683 5.68147 33.8754 4.73091 32.6341 4.73091C32.2094 4.73091 31.7847 4.84017 31.3601 5.06961C31.0007 5.25535 30.6632 5.12424 30.5434 4.73091C30.2167 3.64924 29.3892 2.97184 28.3983 2.97184C27.7994 2.97184 27.2005 3.22313 26.6887 3.70387C26.3947 3.97702 26.0354 3.93332 25.8176 3.58369C25.3276 2.81887 24.6089 2.38184 23.8249 2.38184C23.0409 2.38184 22.3114 2.81887 21.8214 3.58369C21.6145 3.93332 21.2552 3.97702 20.9503 3.70387C20.4385 3.22313 19.8505 2.97184 19.2407 2.97184C18.2498 2.97184 17.4332 3.64924 17.0956 4.73091C16.9758 5.12424 16.6383 5.25535 16.2789 5.06961C15.8652 4.84017 15.4296 4.73091 15.0158 4.73091C13.7745 4.73091 12.8707 5.68147 12.8272 7.04721C12.8054 7.46239 12.5223 7.68091 12.1303 7.58258C11.1394 7.36406 10.2356 7.63721 9.70206 8.30369C9.25562 8.84998 9.11406 9.59295 9.29917 10.3905C9.34272 10.5981 9.32095 10.7729 9.22295 10.8931C9.13584 11.0133 8.9725 11.0898 8.76561 11.0898C7.85095 11.1226 7.1105 11.5268 6.71851 12.2042C6.3265 12.8816 6.33739 13.7339 6.77295 14.5315C6.87095 14.7172 6.89273 14.892 6.82739 15.0341C6.77295 15.1761 6.63139 15.2854 6.43539 15.34C5.56428 15.6131 4.94361 16.1922 4.73672 16.9461C4.54073 17.7 4.78028 18.5194 5.40095 19.1859C5.5425 19.3279 5.60783 19.4918 5.58606 19.6448C5.56428 19.7978 5.45539 19.9398 5.28117 20.0491C4.50806 20.5298 4.0725 21.2618 4.0725 22.0376C4.0725 22.8242 4.50806 23.5454 5.28117 24.0261C5.45539 24.1354 5.56428 24.2774 5.58606 24.4304C5.60783 24.5833 5.5425 24.7472 5.40095 24.9002ZM13.3716 38.5685C13.7636 39.0492 14.3298 39.3442 15.0158 39.3442C15.4296 39.3442 15.8652 39.235 16.2789 39.0055C16.6383 38.8198 16.9758 38.9509 17.0956 39.3442C17.3787 40.2511 17.9994 40.8629 18.7725 41.0378L14.4278 54.0068L12.8489 50.8492C12.5767 50.3139 11.9125 50.0954 11.3789 50.3685L8.34095 51.8763L13.3716 38.5685ZM28.7903 41.0596C29.5961 40.9067 30.2603 40.2839 30.5434 39.3442C30.6632 38.9509 31.0007 38.8198 31.3601 39.0055C31.7847 39.235 32.2094 39.3442 32.6341 39.3442C33.2765 39.3442 33.8209 39.082 34.2021 38.6559L39.2001 51.8763L36.1729 50.3576C35.6285 50.0954 34.9752 50.3139 34.7029 50.8492L33.1241 54.0068L28.7903 41.0596ZM6.26117 22.0157C6.28295 22.0048 6.3265 21.9502 6.43539 21.8846C7.16495 21.4366 7.64406 20.7155 7.74206 19.9179C7.85095 19.1313 7.57873 18.3118 6.99073 17.6891C6.90361 17.6016 6.87095 17.5361 6.86006 17.4924C6.88184 17.4924 6.94717 17.4487 7.06695 17.4159C7.88361 17.1646 8.52606 16.5965 8.84184 15.8535C9.14672 15.1105 9.09228 14.2583 8.68939 13.5044C8.63494 13.3952 8.61317 13.3187 8.61317 13.275C8.65673 13.275 8.71117 13.2641 8.83095 13.2531C9.69117 13.2313 10.4643 12.8379 10.9543 12.2042C11.4443 11.5705 11.6185 10.7292 11.4225 9.89887C11.3789 9.71313 11.4116 9.63665 11.4116 9.63665C11.4987 9.66943 11.5641 9.68035 11.6294 9.69128C13.3498 10.0955 14.9396 8.86091 15.0049 7.12369C15.0049 6.92702 15.0594 6.86147 15.0594 6.86147C15.0485 6.89424 15.1356 6.9161 15.2554 6.97072C15.6801 7.20017 16.1374 7.32035 16.6056 7.32035C17.8034 7.32035 18.8052 6.54461 19.1754 5.35369C19.219 5.2335 19.2516 5.16795 19.2843 5.1461C19.2952 5.15702 19.3605 5.20072 19.4585 5.27721C19.9921 5.7798 20.6672 6.05295 21.3532 6.05295C22.2896 6.05295 23.1498 5.56128 23.6725 4.73091C23.7378 4.62165 23.7923 4.56702 23.8249 4.54517C23.8358 4.56702 23.8903 4.62165 23.9556 4.73091C24.4783 5.56128 25.3385 6.05295 26.275 6.05295C26.9609 6.05295 27.6361 5.7798 28.1696 5.27721C28.2676 5.20072 28.3329 5.15702 28.3656 5.1461C28.3765 5.16795 28.4092 5.2335 28.4527 5.35369C28.8229 6.54461 29.8356 7.32035 31.0334 7.32035C31.4907 7.32035 31.9589 7.20017 32.3836 6.97072C32.4707 6.92702 32.5578 6.90517 32.6014 6.89424C32.6014 6.91609 32.6232 6.99258 32.6232 7.11276C32.6885 8.86091 34.2783 10.0846 35.9987 9.69128C36.0713 9.67671 36.133 9.66943 36.1838 9.66943C36.2165 9.63665 36.2492 9.71313 36.2056 9.89887C36.0096 10.7292 36.1838 11.5705 36.6738 12.2042C37.1638 12.8489 37.9369 13.2313 38.7972 13.2531C38.9169 13.2641 38.9932 13.2859 39.0258 13.2968C39.0149 13.3187 38.9932 13.3952 38.9387 13.5044C38.5358 14.2583 38.4814 15.1105 38.7863 15.8535C39.1021 16.5965 39.7445 17.1646 40.5612 17.4159C40.6809 17.4487 40.7463 17.4924 40.7789 17.5142C40.7572 17.5252 40.7245 17.6016 40.6374 17.6891C40.0603 18.3118 39.7772 19.1313 39.8861 19.9179C39.9949 20.7155 40.4741 21.4366 41.1927 21.8846C41.3016 21.9502 41.3561 22.0048 41.3778 22.0376C41.3561 22.0485 41.3016 22.1031 41.1927 22.1687C40.4741 22.6276 39.9949 23.3378 39.8861 24.1354C39.7772 24.9329 40.0603 25.7415 40.6374 26.3642C40.7245 26.4626 40.7572 26.5281 40.7789 26.5609C40.7463 26.5718 40.6809 26.6046 40.5612 26.6483C39.7445 26.8887 39.1021 27.4568 38.7972 28.1998C38.4814 28.9428 38.5358 29.8059 38.9387 30.5598C38.9932 30.6691 39.0149 30.7346 39.0149 30.7783C39.0041 30.7674 38.9278 30.8002 38.7972 30.8002C37.9369 30.8329 37.1747 31.2154 36.6738 31.8491C36.1838 32.4828 36.0205 33.3241 36.2056 34.1544C36.2492 34.3402 36.2165 34.4167 36.2165 34.4167C36.1294 34.3839 36.0749 34.3729 35.9987 34.362C35.7809 34.3074 35.5523 34.2855 35.3345 34.2855C33.8427 34.2855 32.6885 35.4218 32.6341 36.9405C32.6232 37.1263 32.5796 37.1918 32.5796 37.1918C32.5796 37.1591 32.4925 37.1372 32.3836 37.0826C31.9589 36.8531 31.4907 36.7329 31.0334 36.7329C29.8356 36.7329 28.8229 37.5087 28.4527 38.6996C28.4201 38.8198 28.3765 38.8854 28.3547 38.9181C28.3329 38.8963 28.2676 38.8526 28.1805 38.7761C27.6361 38.2735 26.9609 38.0004 26.275 38.0004C25.3494 38.0004 24.4783 38.492 23.9665 39.3224C23.9012 39.4207 23.8467 39.4754 23.8141 39.4972C23.7814 39.4754 23.7378 39.4207 23.6725 39.3224C23.1498 38.492 22.2896 38.0004 21.3641 38.0004C20.6672 38.0004 19.9921 38.2735 19.4585 38.7761C19.3605 38.8526 19.2952 38.8963 19.2625 38.9072C19.2625 38.8854 19.219 38.8198 19.1863 38.6996C18.8161 37.5087 17.8034 36.7329 16.6056 36.7329C16.1483 36.7329 15.6801 36.8531 15.2554 37.0826C15.1574 37.1263 15.0812 37.1481 15.0267 37.1591C15.0376 37.1372 15.0158 37.0607 15.0049 36.9405C14.9396 35.1924 13.3607 33.9687 11.6294 34.362C11.5641 34.3766 11.506 34.3839 11.4552 34.3839C11.4116 34.4167 11.3898 34.3402 11.4334 34.1544C11.6185 33.3241 11.4443 32.4828 10.9543 31.8491C10.4643 31.2154 9.69117 30.8329 8.84184 30.8002C8.71117 30.8002 8.64584 30.7783 8.61317 30.7565C8.62406 30.7346 8.63494 30.6581 8.70028 30.5489C9.10317 29.795 9.14672 28.9428 8.84184 28.1998C8.53695 27.4568 7.88361 26.8887 7.06695 26.6374C6.94717 26.6046 6.88184 26.5609 6.86006 26.5391C6.87095 26.5281 6.9145 26.4626 7.00161 26.3642C7.57872 25.7415 7.85095 24.9329 7.75295 24.1354C7.64406 23.3378 7.16495 22.6276 6.44628 22.1687C6.33739 22.1031 6.28295 22.0485 6.26117 22.0157Z" fill="black"/>
<path fill-rule="evenodd" clip-rule="evenodd" d="M10.9325 22.0376C10.9325 29.1176 16.7145 34.8756 23.825 34.8756C30.9354 34.8756 36.7174 29.1176 36.7174 22.0376C36.7174 14.9685 30.9354 9.21057 23.825 9.21057C16.7145 9.21057 10.9325 14.9685 10.9325 22.0376ZM13.1103 22.0376C13.1103 16.1595 17.9232 11.3848 23.825 11.3848C29.7267 11.3848 34.5287 16.1595 34.5287 22.0376C34.5287 27.9158 29.7267 32.7013 23.825 32.7013C17.9232 32.7013 13.1103 27.9158 13.1103 22.0376Z" fill="black"/>
</svg>
