<svg width="57" height="56" viewBox="0 0 57 56" fill="none" xmlns="http://www.w3.org/2000/svg">
<path fill-rule="evenodd" clip-rule="evenodd" d="M53.8622 38.2474C52.8162 39.2962 51.3864 39.7292 50.0238 39.556C50.0494 39.7485 50.0622 39.9441 50.0622 40.143C50.0622 41.365 49.5824 42.5196 48.7188 43.3856C47.7112 44.3959 46.2814 44.8674 44.8804 44.6942C45.0531 46.0605 44.6213 47.4749 43.5753 48.5237C42.5678 49.5244 41.1284 50.0055 39.7369 49.8323C39.9097 51.189 39.4779 52.6131 38.4319 53.6523C37.5683 54.5279 36.4167 54.9993 35.1885 54.9993C33.9602 54.9993 32.7991 54.5279 31.9354 53.6523L29.3157 51.0351L27.5213 52.8248C26.6577 53.6908 25.5061 54.1622 24.2779 54.1622C23.0496 54.1622 21.8885 53.6908 21.0248 52.8248C20.1612 51.9492 19.6814 50.8041 19.6814 49.5725C19.6814 49.3705 19.7102 49.1684 19.739 48.976C19.5375 48.9952 19.3359 49.0337 19.1344 49.0337C17.9061 49.0337 16.7546 48.5526 15.8814 47.6866C14.8354 46.6378 14.4228 45.2042 14.5955 43.8378C14.394 43.8667 14.1925 43.8956 13.991 43.8956C12.7627 43.8956 11.6112 43.4145 10.738 42.5485C9.692 41.4997 9.27938 40.066 9.4521 38.6997C9.26018 38.7285 9.05867 38.7574 8.84756 38.7574C7.61927 38.7574 6.46776 38.2859 5.60412 37.42C3.80968 35.6303 3.80968 32.7148 5.60412 30.9251L7.48493 29.0488C2.72534 22.8907 3.26271 14.1828 8.79958 8.6502C14.3268 3.12718 23.088 2.58834 29.2486 7.36085C32.0986 4.74367 35.7834 3.28113 39.6986 3.28113C43.844 3.28113 47.74 4.89762 50.6667 7.82271C56.5107 13.6633 56.6834 23.0447 51.2137 29.1162L53.8622 31.7622C55.6566 33.5519 55.6566 36.4578 53.8622 38.2474ZM52.5092 33.1189L35.9082 16.5402C34.8238 15.9918 33.4036 16.1457 32.5208 17.031L22.3875 27.1437C21.5142 28.0193 20.3627 28.4907 19.1344 28.4907C17.9061 28.4907 16.7546 28.0193 15.8814 27.1533C15.0178 26.2777 14.538 25.1327 14.538 23.9011C14.538 22.6791 15.0178 21.5244 15.8814 20.6584L27.8476 8.71755C22.4642 4.71481 14.941 5.23439 10.1526 10.0069C5.33544 14.8179 4.83645 22.3808 8.91473 27.7595C9.65362 27.2784 10.5173 27.0186 11.4193 27.0186C12.6476 27.0186 13.7991 27.4997 14.6723 28.3657C15.7183 29.4145 16.1405 30.8481 15.9582 32.2145C16.1597 32.1856 16.3612 32.1567 16.5627 32.1567C17.791 32.1567 18.9425 32.6282 19.8157 33.4942C20.8617 34.543 21.2743 35.9767 21.092 37.343C21.2935 37.3237 21.495 37.2852 21.7061 37.2852C22.9344 37.2852 24.0859 37.7663 24.9592 38.6323C26.0051 39.6811 26.4178 41.1148 26.2354 42.4811C26.437 42.4523 26.6385 42.4234 26.8496 42.4234C28.0779 42.4234 29.2294 42.9045 30.1026 43.7705C30.9662 44.6365 31.446 45.7911 31.446 47.0131C31.446 47.9657 31.1486 48.8701 30.6112 49.6303L33.2885 52.3052C34.3056 53.3155 36.0713 53.3155 37.0789 52.3052C38.1248 51.2564 38.1248 49.5629 37.0789 48.5237L34.5072 45.9547C34.1329 45.5794 34.1329 44.9732 34.5072 44.598C34.8814 44.2227 35.4859 44.2227 35.8602 44.598L38.4319 47.167C39.4491 48.1773 41.2051 48.1773 42.2223 47.167C43.2587 46.1279 43.2587 44.4344 42.2223 43.3856C42.2223 43.3856 42.2191 43.3856 42.2127 43.3856L39.6506 40.8165C39.2763 40.4413 39.2763 39.8351 39.6506 39.4694C40.0248 39.0942 40.6294 39.0942 41.0036 39.4694L43.5753 42.0289C44.5829 43.0488 46.3486 43.0392 47.3657 42.0289C47.8647 41.5285 48.143 40.855 48.143 40.143C48.143 39.431 47.8647 38.7574 47.3657 38.2474L44.794 35.6784C44.4198 35.3127 44.4198 34.7066 44.794 34.3313C45.1683 33.956 45.7728 33.956 46.147 34.3313L48.7188 36.9004C49.7647 37.9395 51.4632 37.9395 52.5092 36.8907C53.5455 35.8516 53.5455 34.1581 52.5092 33.1189ZM21.0344 46.3395L23.5965 43.7705C24.6425 42.7217 24.6425 41.0282 23.5965 39.989C23.088 39.4791 22.4258 39.2 21.7061 39.2C20.9864 39.2 20.3147 39.4791 19.8157 39.989L17.244 42.5581C16.1981 43.5973 16.1981 45.2907 17.244 46.3395C18.2516 47.3402 20.0173 47.3402 21.0344 46.3395ZM15.8814 41.2014L18.4531 38.6323C19.4991 37.5932 19.4991 35.8901 18.4531 34.8509C17.9541 34.3409 17.2824 34.0715 16.5627 34.0715C15.8526 34.0715 15.1713 34.3409 14.6723 34.8509L12.1006 37.42C11.0546 38.4591 11.0546 40.1526 12.1006 41.2014C13.1082 42.2117 14.8738 42.2117 15.8814 41.2014ZM10.738 36.0633L13.3193 33.4942C14.3556 32.455 14.3556 30.7615 13.3193 29.7127C12.8107 29.2124 12.139 28.9334 11.4193 28.9334C10.7092 28.9334 10.0375 29.2124 9.52887 29.7127L6.95715 32.2818C5.91119 33.3306 5.91119 35.0241 6.95715 36.0633C7.96473 37.0736 9.73039 37.0736 10.738 36.0633ZM29.9875 9.29487L17.244 22.0151C16.7354 22.5155 16.4572 23.189 16.4572 23.9011C16.4572 24.6131 16.7354 25.2866 17.244 25.7966C18.2516 26.8069 20.0173 26.7973 21.0248 25.7966L31.1582 15.6743C32.0698 14.7698 33.2789 14.2694 34.5647 14.2694C35.342 14.2694 36.0905 14.4715 36.7622 14.8179C36.8102 14.8371 36.8582 14.8756 36.9061 14.8949C37.2804 15.1066 37.645 15.3567 37.9617 15.6743L49.9662 27.6633C54.5915 22.3327 54.3708 14.2406 49.3041 9.16979C46.742 6.61034 43.3354 5.20553 39.6986 5.20553C36.0713 5.20553 32.6647 6.61034 30.093 9.16979L29.9875 9.29487ZM28.7496 48.9086C29.2486 48.4083 29.5269 47.7347 29.5269 47.0227C29.5269 46.3107 29.2486 45.6371 28.7496 45.1272C28.241 44.6268 27.5693 44.3478 26.8496 44.3478C26.1395 44.3478 25.4678 44.6268 24.9592 45.1272L22.3875 47.6962C21.8885 48.2062 21.6102 48.8701 21.6102 49.5822C21.6006 50.3038 21.8885 50.9773 22.3875 51.4777C23.4046 52.488 25.1607 52.488 26.1779 51.4777L28.7496 48.9086Z" fill="black"/>
</svg>
