<svg width="49" height="60" viewBox="0 0 49 60" fill="none" xmlns="http://www.w3.org/2000/svg">
<path fill-rule="evenodd" clip-rule="evenodd" d="M31.2624 34.697L36.8695 15.8889H25.2271V45.0405C25.2271 50.0304 29.2606 54.091 34.2204 54.091H38.2141C38.7718 54.091 39.21 54.5354 39.21 55.091C39.21 55.6465 38.7718 56.1011 38.2141 56.1011H12.2301C11.6823 56.1011 11.2342 55.6465 11.2342 55.091C11.2342 54.5354 11.6823 54.091 12.2301 54.091H14.2319C19.1917 54.091 23.2252 50.0304 23.2252 45.0405V15.8889H11.5728L17.1899 34.697C17.1998 34.7475 17.1899 34.798 17.1998 34.8485C17.2098 34.899 17.2297 34.9395 17.2297 34.99C17.2297 35.0203 17.2197 35.0607 17.2197 35.091C17.2197 35.091 17.2197 35.0943 17.2197 35.1011C17.16 38.9294 14.0527 42.0304 10.2283 42.0304C6.41385 42.0304 3.30653 38.9294 3.24678 35.1011C3.24678 35.0943 3.24678 35.091 3.24678 35.091C3.24678 35.0607 3.23682 35.0203 3.23682 34.99C3.23682 34.9395 3.25674 34.899 3.26669 34.8485C3.27665 34.798 3.26669 34.7475 3.27665 34.697L8.89373 15.8889H7.23052C6.68275 15.8889 6.23458 15.4344 6.23458 14.8788C6.23458 14.3233 6.68275 13.8788 7.23052 13.8788H23.2252V9.66672C22.06 9.25258 21.2234 8.14147 21.2234 6.83844C21.2234 5.17177 22.5679 3.81824 24.2212 3.81824C25.8744 3.81824 27.2189 5.17177 27.2189 6.83844C27.2189 8.14147 26.3823 9.25258 25.2271 9.66672V13.8788H41.2118C41.7695 13.8788 42.2077 14.3233 42.2077 14.8788C42.2077 15.4344 41.7695 15.8889 41.2118 15.8889H39.5586L45.1657 34.697C45.1856 34.7475 45.1756 34.798 45.1856 34.8485C45.1856 34.8889 45.2055 34.9395 45.2055 34.99C45.2055 38.8687 42.0683 42.0304 38.2141 42.0304C34.3598 42.0304 31.2226 38.8687 31.2226 34.99C31.2226 34.9395 31.2425 34.8889 31.2425 34.8485C31.2525 34.798 31.2425 34.7475 31.2624 34.697ZM43.114 35.99H33.324C33.7821 38.2829 35.8039 40.0102 38.2141 40.0102C40.6242 40.0102 42.646 38.2829 43.114 35.99ZM24.2212 49.6263C23.4045 51.4243 22.1297 52.9597 20.5262 54.091H27.9161C26.3226 52.9597 25.0378 51.4243 24.2212 49.6263ZM15.1283 35.99H5.33824C5.80633 38.2829 7.81812 40.0102 10.2283 40.0102C12.6484 40.0102 14.6602 38.2829 15.1283 35.99ZM5.57726 33.9799H14.8893L10.2283 18.3738L5.57726 33.9799ZM23.2252 6.83844C23.2252 7.39399 23.6734 7.84854 24.2212 7.84854C24.7789 7.84854 25.2271 7.39399 25.2271 6.83844C25.2271 6.28288 24.7789 5.83844 24.2212 5.83844C23.6734 5.83844 23.2252 6.28288 23.2252 6.83844ZM42.8651 33.9799L38.2141 18.3839L33.563 33.9799H42.8651Z" fill="black"/>
</svg>
