<svg width="50" height="54" viewBox="0 0 50 54" fill="none" xmlns="http://www.w3.org/2000/svg">
<path fill-rule="evenodd" clip-rule="evenodd" d="M12.6785 38.6385V50.5565C12.6785 51.1054 12.242 51.5546 11.6865 51.5546H3.75989C3.21425 51.5546 2.76782 51.1054 2.76782 50.5565V38.6385C2.76782 38.0895 3.21425 37.6404 3.75989 37.6404H11.6865C12.242 37.6404 12.6785 38.0895 12.6785 38.6385ZM10.6944 39.6367H4.75195V49.5683H10.6944V39.6367Z" fill="black"/>
<path fill-rule="evenodd" clip-rule="evenodd" d="M24.5834 32.6795V50.5564C24.5834 51.1054 24.1369 51.5546 23.5913 51.5546H15.6548C15.1091 51.5546 14.6627 51.1054 14.6627 50.5564V32.6795C14.6627 32.1306 15.1091 31.6814 15.6548 31.6814H23.5913C24.1369 31.6814 24.5834 32.1306 24.5834 32.6795ZM22.5992 33.6677H16.6468V49.5683H22.5992V33.6677Z" fill="black"/>
<path fill-rule="evenodd" clip-rule="evenodd" d="M36.4781 26.7206V50.5564C36.4781 51.1054 36.0317 51.5546 35.4861 51.5546H27.5496C27.0039 51.5546 26.5575 51.1054 26.5575 50.5564V26.7206C26.5575 26.1716 27.0039 25.7224 27.5496 25.7224H35.4861C36.0317 25.7224 36.4781 26.1716 36.4781 26.7206ZM34.494 27.7087H28.5416V49.5683H34.494V27.7087Z" fill="black"/>
<path fill-rule="evenodd" clip-rule="evenodd" d="M48.373 18.7653V50.5564C48.373 51.1054 47.9266 51.5545 47.3809 51.5545H39.4543C38.8988 51.5545 38.4623 51.1054 38.4623 50.5564V18.7653C38.4623 18.2163 38.8988 17.7771 39.4543 17.7771H47.3809C47.9266 17.7771 48.373 18.2163 48.373 18.7653ZM46.3889 19.7634H40.4464V49.5682H46.3889V19.7634Z" fill="black"/>
<path d="M43.4127 11.8182H41.4385C40.8829 11.8182 40.4464 12.2574 40.4464 12.8063C40.4464 13.3553 40.8829 13.8045 41.4385 13.8045H42.4206V14.7927C42.4206 15.3417 42.867 15.7908 43.4127 15.7908C43.9682 15.7908 44.4047 15.3417 44.4047 14.7927V13.6148C45.5555 13.2056 46.3889 12.1176 46.3889 10.82C46.3889 9.17308 45.0595 7.83555 43.4127 7.83555C42.867 7.83555 42.4206 7.39637 42.4206 6.84738C42.4206 6.2984 42.867 5.84923 43.4127 5.84923H45.3968C45.9524 5.84923 46.3889 5.41004 46.3889 4.86106C46.3889 4.31208 45.9524 3.86291 45.3968 3.86291H44.4047V2.87474C44.4047 2.32576 43.9682 1.87659 43.4127 1.87659C42.867 1.87659 42.4206 2.32576 42.4206 2.87474V4.05256C41.2698 4.4618 40.4464 5.54978 40.4464 6.84738C40.4464 8.49433 41.7758 9.83185 43.4127 9.83185C43.9682 9.83185 44.4047 10.271 44.4047 10.82C44.4047 11.369 43.9682 11.8182 43.4127 11.8182Z" fill="black"/>
</svg>
