<svg width="61" height="38" viewBox="0 0 61 38" fill="none" xmlns="http://www.w3.org/2000/svg">
<path fill-rule="evenodd" clip-rule="evenodd" d="M56.5247 5.65273V31.9975C56.5247 32.5174 56.0971 32.9333 55.565 32.9333H5.99542C5.46334 32.9333 5.03577 32.5174 5.03577 31.9975V5.65273C5.03577 5.13283 5.46334 4.70746 5.99542 4.70746H55.565C56.0971 4.70746 56.5247 5.13283 56.5247 5.65273ZM54.6149 6.58855H6.94558V31.0522H54.6149V6.58855Z" fill="black"/>
<path fill-rule="evenodd" clip-rule="evenodd" d="M8.85535 22.9607V14.6801C8.85535 14.1602 9.28292 13.7443 9.8055 13.7443C11.5918 13.7443 13.0455 12.3075 13.0455 10.5398C13.0455 10.0199 13.4731 9.604 13.9957 9.604H47.5647C48.0873 9.604 48.5148 10.0199 48.5148 10.5398C48.5148 12.3075 49.9686 13.7443 51.7549 13.7443C52.287 13.7443 52.705 14.1602 52.705 14.6801V22.9607C52.705 23.4806 52.287 23.906 51.7549 23.906C49.9686 23.906 48.5148 25.3334 48.5148 27.101C48.5148 27.6209 48.0873 28.0368 47.5647 28.0368H13.9957C13.4731 28.0368 13.0455 27.6209 13.0455 27.101C13.0455 25.3334 11.5918 23.906 9.8055 23.906C9.28292 23.906 8.85535 23.4806 8.85535 22.9607ZM10.7557 22.11C12.8365 22.4975 14.4708 24.114 14.8698 26.1652H46.6905C47.0896 24.114 48.7239 22.4975 50.8047 22.11V15.5309C48.7239 15.1528 47.0801 13.5269 46.6905 11.4851H14.8698C14.4708 13.5269 12.8365 15.1528 10.7557 15.5309V22.11Z" fill="black"/>
<path d="M30.785 21.6467H28.8752C28.3431 21.6467 27.9155 22.0627 27.9155 22.5826C27.9155 23.1025 28.3431 23.5278 28.8752 23.5278H29.8253V24.4637C29.8253 24.9836 30.2529 25.4089 30.785 25.4089C31.3076 25.4089 31.7352 24.9836 31.7352 24.4637V23.3482C32.8373 22.9607 33.645 21.9303 33.645 20.7015C33.645 19.1512 32.3528 17.8845 30.785 17.8845C30.2529 17.8845 29.8253 17.4592 29.8253 16.9393C29.8253 16.4194 30.2529 16.0035 30.785 16.0035H32.6853C33.2174 16.0035 33.645 15.5781 33.645 15.0582C33.645 14.5383 33.2174 14.1129 32.6853 14.1129H31.7352V13.1771C31.7352 12.6572 31.3076 12.2318 30.785 12.2318C30.2529 12.2318 29.8253 12.6572 29.8253 13.1771V14.2925C28.7232 14.6801 27.9155 15.7104 27.9155 16.9393C27.9155 18.499 29.2077 19.7656 30.785 19.7656C31.3076 19.7656 31.7352 20.1816 31.7352 20.7015C31.7352 21.2214 31.3076 21.6467 30.785 21.6467Z" fill="black"/>
</svg>
