<svg width="58" height="56" viewBox="0 0 58 56" fill="none" xmlns="http://www.w3.org/2000/svg">
<path fill-rule="evenodd" clip-rule="evenodd" d="M55.2871 13.9999V29.4829C55.2871 31.474 53.6448 33.0918 51.6283 33.0918H51.1086V52.7021C51.1086 53.2725 50.6409 53.7392 50.0692 53.7392H8.34658C7.7749 53.7392 7.30716 53.2725 7.30716 52.7021V33.0918H6.78744C4.77096 33.0918 3.12866 31.474 3.12866 29.4829V13.9999C3.12866 12.0088 4.77096 10.3806 6.78744 10.3806H17.7326V7.29028C17.7326 5.29917 19.3749 3.67102 21.381 3.67102H37.0348C39.0408 3.67102 40.6831 5.29917 40.6831 7.29028V10.3806H51.6283C53.6448 10.3806 55.2871 12.0088 55.2871 13.9999ZM42.762 31.0281H40.6831V33.0918H42.762V31.0281ZM17.7326 31.0281H15.6538V33.0918H17.7326V31.0281ZM49.0297 33.0918H44.8512V34.1288C44.8512 34.6992 44.3835 35.1555 43.8118 35.1555H39.6333C39.0616 35.1555 38.5939 34.6992 38.5939 34.1288V33.0918H19.8219V34.1288C19.8219 34.6992 19.3541 35.1555 18.7824 35.1555H14.6039C14.0322 35.1555 13.5645 34.6992 13.5645 34.1288V33.0918H9.3964V51.6755H49.0297V33.0918ZM19.8219 10.3806H38.5939V7.27991C38.5939 6.42954 37.8975 5.73472 37.0348 5.73472H21.381C20.5183 5.73472 19.8219 6.42954 19.8219 7.27991V10.3806ZM53.1978 13.9999C53.1978 13.1495 52.491 12.4547 51.6283 12.4547H6.78744C5.92472 12.4547 5.21791 13.1495 5.21791 13.9999V29.4829C5.21791 30.3332 5.92472 31.0281 6.78744 31.0281H13.5645V30.0014C13.5645 29.431 14.0322 28.9644 14.6039 28.9644H18.7824C19.3541 28.9644 19.8219 29.431 19.8219 30.0014V31.0281H38.5939V30.0014C38.5939 29.431 39.0616 28.9644 39.6333 28.9644H43.8118C44.3835 28.9644 44.8512 29.431 44.8512 30.0014V31.0281H51.6283C52.491 31.0281 53.1978 30.3332 53.1978 29.4829V13.9999Z" fill="black"/>
</svg>
