<svg width="55" height="64" viewBox="0 0 55 64" fill="none" xmlns="http://www.w3.org/2000/svg">
<path fill-rule="evenodd" clip-rule="evenodd" d="M53.199 59.4855C53.199 60.0781 52.7245 60.563 52.1206 60.563H4.70197C4.10883 60.563 3.62354 60.0781 3.62354 59.4855C3.62354 58.8929 4.10883 58.4189 4.70197 58.4189H5.7804V33.7562C5.7804 33.1529 6.26569 32.6788 6.85883 32.6788H14.4079V18.7367C14.4079 18.1441 14.8824 17.67 15.4863 17.67H20.8677V12.3044C20.8677 11.7118 21.3529 11.2269 21.9461 11.2269H27.3382V3.72795C27.3382 3.13536 27.8235 2.65051 28.4167 2.65051C29.0098 2.65051 29.4951 3.13536 29.4951 3.72795V11.2269H34.8765C35.4804 11.2269 35.9549 11.7118 35.9549 12.3044V17.67H41.3471C41.9402 17.67 42.4255 18.1441 42.4255 18.7367V32.6788H49.9745C50.5677 32.6788 51.0422 33.1529 51.0422 33.7562V58.4189H52.1206C52.7245 58.4189 53.199 58.8929 53.199 59.4855ZM16.5539 58.4189H18.7108V53.0532C18.7108 52.4606 19.1961 51.9865 19.7892 51.9865C20.3824 51.9865 20.8677 52.4606 20.8677 53.0532V58.4189H23.0245V53.0532C23.0245 52.4606 23.5098 51.9865 24.1029 51.9865C24.6961 51.9865 25.1814 52.4606 25.1814 53.0532V58.4189H27.3382V53.0532C27.3382 52.4606 27.8235 51.9865 28.4167 51.9865C29.0098 51.9865 29.4951 52.4606 29.4951 53.0532V58.4189H31.652V53.0532C31.652 52.4606 32.1265 51.9865 32.7304 51.9865C33.3235 51.9865 33.798 52.4606 33.798 53.0532V58.4189H35.9549V53.0532C35.9549 52.4606 36.4402 51.9865 37.0333 51.9865C37.6373 51.9865 38.1118 52.4606 38.1118 53.0532V58.4189H40.2686V19.8141H16.5539V58.4189ZM7.93726 58.4189H14.4079V34.8229H7.93726V58.4189ZM23.0245 17.67H33.798V13.3711H23.0245V17.67ZM48.8961 58.4296V34.8337H42.4255V58.4296H48.8961Z" fill="black"/>
<path d="M11.1725 36.967C10.5794 36.967 10.0941 37.4519 10.0941 38.0445V55.1973C10.0941 55.7899 10.5794 56.2748 11.1725 56.2748C11.7657 56.2748 12.251 55.7899 12.251 55.1973V38.0445C12.251 37.4519 11.7657 36.967 11.1725 36.967Z" fill="black"/>
<path d="M45.6608 36.967C45.0677 36.967 44.5824 37.4519 44.5824 38.0445V55.1973C44.5824 55.7899 45.0677 56.2748 45.6608 56.2748C46.254 56.2748 46.7393 55.7899 46.7393 55.1973V38.0445C46.7393 37.4519 46.254 36.967 45.6608 36.967Z" fill="black"/>
<path d="M19.7892 24.1024H37.0334C37.6373 24.1024 38.1118 23.6175 38.1118 23.0249C38.1118 22.4323 37.6373 21.9583 37.0334 21.9583H19.7892C19.1961 21.9583 18.7108 22.4323 18.7108 23.0249C18.7108 23.6175 19.1961 24.1024 19.7892 24.1024Z" fill="black"/>
<path d="M19.7892 28.3906H37.0334C37.6373 28.3906 38.1118 27.9057 38.1118 27.3131C38.1118 26.7205 37.6373 26.2465 37.0334 26.2465H19.7892C19.1961 26.2465 18.7108 26.7205 18.7108 27.3131C18.7108 27.9057 19.1961 28.3906 19.7892 28.3906Z" fill="black"/>
<path d="M19.7892 32.6788H37.0334C37.6373 32.6788 38.1118 32.1939 38.1118 31.6013C38.1118 31.0087 37.6373 30.5347 37.0334 30.5347H19.7892C19.1961 30.5347 18.7108 31.0087 18.7108 31.6013C18.7108 32.1939 19.1961 32.6788 19.7892 32.6788Z" fill="black"/>
<path d="M19.7892 36.967H37.0334C37.6373 36.967 38.1118 36.4929 38.1118 35.9003C38.1118 35.3077 37.6373 34.8229 37.0334 34.8229H19.7892C19.1961 34.8229 18.7108 35.3077 18.7108 35.9003C18.7108 36.4929 19.1961 36.967 19.7892 36.967Z" fill="black"/>
<path d="M19.7892 41.2552H37.0334C37.6373 41.2552 38.1118 40.7811 38.1118 40.1885C38.1118 39.5959 37.6373 39.1111 37.0334 39.1111H19.7892C19.1961 39.1111 18.7108 39.5959 18.7108 40.1885C18.7108 40.7811 19.1961 41.2552 19.7892 41.2552Z" fill="black"/>
<path d="M19.7892 45.5434H37.0334C37.6373 45.5434 38.1118 45.0693 38.1118 44.4767C38.1118 43.8841 37.6373 43.3993 37.0334 43.3993H19.7892C19.1961 43.3993 18.7108 43.8841 18.7108 44.4767C18.7108 45.0693 19.1961 45.5434 19.7892 45.5434Z" fill="black"/>
<path d="M19.7892 49.8424H37.0334C37.6373 49.8424 38.1118 49.3575 38.1118 48.7649C38.1118 48.1723 37.6373 47.6875 37.0334 47.6875H19.7892C19.1961 47.6875 18.7108 48.1723 18.7108 48.7649C18.7108 49.3575 19.1961 49.8424 19.7892 49.8424Z" fill="black"/>
</svg>
