<svg width="70" height="67" viewBox="0 0 70 67" fill="none" xmlns="http://www.w3.org/2000/svg">
<path fill-rule="evenodd" clip-rule="evenodd" d="M25.3396 59.1833C25.3396 59.7854 24.8489 60.2781 24.2492 60.2781C23.6386 60.2781 23.148 59.7854 23.148 59.1833C23.148 56.1836 20.6947 53.7423 17.6854 53.7423C14.6651 53.7423 12.2119 56.1836 12.2119 59.1833C12.2119 59.7854 11.7212 60.2781 11.1215 60.2781C10.5109 60.2781 10.0203 59.7854 10.0203 59.1833C10.0203 56.2493 11.7103 53.6985 14.1636 52.4176C12.9751 51.4214 12.2119 49.9544 12.2119 48.2903C12.2119 45.2907 14.6651 42.8384 17.6854 42.8384C20.6947 42.8384 23.148 45.2907 23.148 48.2903C23.148 49.9544 22.3847 51.4214 21.2072 52.4176C23.6605 53.6985 25.3396 56.2493 25.3396 59.1833ZM17.6854 51.5637C19.4953 51.5637 20.9673 50.0967 20.9673 48.2903C20.9673 46.484 19.4953 45.017 17.6854 45.017C15.8754 45.017 14.4034 46.484 14.4034 48.2903C14.4034 50.0967 15.8754 51.5637 17.6854 51.5637Z" fill="black"/>
<path fill-rule="evenodd" clip-rule="evenodd" d="M42.8504 24.3149C42.8504 24.917 42.3598 25.4097 41.7492 25.4097C41.1495 25.4097 40.6589 24.917 40.6589 24.3149C40.6589 21.3152 38.2056 18.8739 35.1853 18.8739C32.176 18.8739 29.7227 21.3152 29.7227 24.3149C29.7227 24.917 29.2321 25.4097 28.6215 25.4097C28.0218 25.4097 27.5311 24.917 27.5311 24.3149C27.5311 21.3809 29.2103 18.8301 31.6635 17.5492C30.486 16.553 29.7227 15.086 29.7227 13.4219C29.7227 10.4113 32.176 7.96997 35.1853 7.96997C38.2056 7.96997 40.6589 10.4113 40.6589 13.4219C40.6589 15.086 39.8956 16.553 38.718 17.5492C41.1604 18.8301 42.8504 21.3809 42.8504 24.3149ZM35.1853 16.6953C36.9953 16.6953 38.4673 15.2283 38.4673 13.4219C38.4673 11.6156 36.9953 10.1486 35.1853 10.1486C33.3754 10.1486 31.9034 11.6156 31.9034 13.4219C31.9034 15.2283 33.3754 16.6953 35.1853 16.6953Z" fill="black"/>
<path fill-rule="evenodd" clip-rule="evenodd" d="M60.3504 59.1833C60.3504 59.7854 59.8598 60.2781 59.2601 60.2781C58.6495 60.2781 58.1589 59.7854 58.1589 59.1833C58.1589 56.1836 55.7056 53.7423 52.6962 53.7423C49.676 53.7423 47.2227 56.1836 47.2227 59.1833C47.2227 59.7854 46.7321 60.2781 46.1324 60.2781C45.5218 60.2781 45.0311 59.7854 45.0311 59.1833C45.0311 56.2493 46.7212 53.6985 49.1744 52.4176C47.986 51.4214 47.2227 49.9544 47.2227 48.2903C47.2227 45.2907 49.676 42.8384 52.6962 42.8384C55.7056 42.8384 58.1589 45.2907 58.1589 48.2903C58.1589 49.9544 57.3956 51.4214 56.218 52.4176C58.6713 53.6985 60.3504 56.2493 60.3504 59.1833ZM52.6962 51.5637C54.5062 51.5637 55.9782 50.0967 55.9782 48.2903C55.9782 46.484 54.5062 45.017 52.6962 45.017C50.8863 45.017 49.4143 46.484 49.4143 48.2903C49.4143 50.0967 50.8863 51.5637 52.6962 51.5637Z" fill="black"/>
<path d="M36.2866 36.9376V28.6721C36.2866 28.07 35.796 27.5883 35.1854 27.5883C34.5857 27.5883 34.095 28.07 34.095 28.6721V36.9376L27.8474 43.1559C27.4221 43.5829 27.4221 44.2726 27.8474 44.6995C28.0654 44.9185 28.338 45.017 28.6215 45.017C28.905 45.017 29.1885 44.9185 29.3957 44.6995L35.1854 38.9301L40.9751 44.6995C41.1932 44.9185 41.4767 45.017 41.7492 45.017C42.0327 45.017 42.3162 44.9185 42.5234 44.6995C42.9486 44.2726 42.9486 43.5829 42.5234 43.1559L36.2866 36.9376Z" fill="black"/>
</svg>
