<svg width="56" height="57" viewBox="0 0 56 57" fill="none" xmlns="http://www.w3.org/2000/svg">
<path fill-rule="evenodd" clip-rule="evenodd" d="M54.487 28.3139C54.487 42.8283 42.5502 54.6397 27.8723 54.6397C13.1944 54.6397 1.25757 42.8283 1.25757 28.3139C1.25757 13.7995 13.1944 1.99792 27.8723 1.99792C42.5502 1.99792 54.487 13.7995 54.487 28.3139ZM20.3663 51.5252C18.3032 49.7036 16.5151 47.1474 15.12 44.0722H9.09757C12.0449 47.5098 15.9355 50.1247 20.3663 51.5252ZM9.09757 12.5557H15.12C16.5151 9.4804 18.3032 6.93401 20.3663 5.10256C15.9355 6.51287 12.0449 9.12782 9.09757 12.5557ZM35.3783 5.10256C37.4414 6.93401 39.2393 9.4804 40.6344 12.5557H46.647C43.6997 9.12782 39.8091 6.51287 35.3783 5.10256ZM43.7979 27.3443H52.4927C52.306 22.5845 50.7242 18.1675 48.16 14.4948C48.1306 14.4948 48.1109 14.5046 48.0814 14.5046H41.4302C42.8449 18.2655 43.6898 22.6433 43.7979 27.3443ZM39.3769 42.1232C40.8309 38.4505 41.7151 34.0433 41.8232 29.2933H28.8646V42.1232H39.3769ZM38.5123 44.0722H28.8646V52.6222C32.7158 52.1423 36.1544 48.9299 38.5123 44.0722ZM17.2323 44.0722C19.6 48.9299 23.0288 52.152 26.8898 52.6222V44.0722H17.2323ZM16.3677 42.1232H26.88V29.2933H13.9214C14.0295 34.0433 14.9137 38.4505 16.3677 42.1232ZM16.3677 14.5046C14.9137 18.1871 14.0295 22.5845 13.9214 27.3443H26.88V14.5046H16.3677ZM17.2323 12.5557H26.8898V4.01545C23.0288 4.48555 19.5902 7.70772 17.2323 12.5557ZM28.8548 14.5046V27.3443H41.8232C41.7151 22.5845 40.8211 18.1871 39.367 14.5046H28.8548ZM38.5123 12.5557C36.1446 7.70772 32.7158 4.48555 28.8548 4.01545V12.5557H38.5123ZM3.25195 27.3443H11.9565C12.0548 22.6433 12.9095 18.2655 14.3144 14.5046H7.58458C5.01055 18.1871 3.44845 22.5845 3.25195 27.3443ZM7.66318 42.1232H14.3144C12.9095 38.3722 12.0548 33.9845 11.9467 29.2933H3.25195C3.44845 34.0531 5.02038 38.4603 7.59441 42.1428C7.61406 42.1428 7.64353 42.1232 7.66318 42.1232ZM52.4927 29.2933H43.7979C43.6898 33.9845 42.8449 38.3722 41.4302 42.1232H48.0814C48.1109 42.1232 48.1306 42.1428 48.1502 42.1428C50.7341 38.4603 52.306 34.0531 52.4927 29.2933ZM46.647 44.0722H40.6344C39.2393 47.1474 37.4414 49.7036 35.3783 51.5252C39.8091 50.1247 43.6997 47.5098 46.647 44.0722Z" fill="black"/>
</svg>
